<?xml version="1.0" encoding="UTF-8"?>
<svg version="1.1" xmlns="http://www.w3.org/2000/svg" width="512" height="512">
<path d="M0 0 C1.01053436 -0.00626404 2.02106873 -0.01252808 3.06222534 -0.01898193 C59.05656663 -0.2388468 111.04986488 23.92237509 151.3125 62.4375 C152.5190625 63.54931641 152.5190625 63.54931641 153.75 64.68359375 C179.203539 88.90422695 189.92277374 121.59024181 195.3125 155.4375 C195.44527344 156.25331543 195.57804687 157.06913086 195.71484375 157.90966797 C202.63308213 202.53813552 194.58226897 244.62795699 167.88867188 281.31835938 C166.18344195 283.6110167 164.44763677 285.87772301 162.703125 288.140625 C134.62897626 324.60346361 122.53917887 362.99242649 128.4375 409.125 C131.61282964 431.67438509 137.76246097 453.85394877 147.11328125 474.6171875 C150.04265135 481.5064553 150.57137882 489.43299814 148.25 496.625 C145.15551283 503.63437325 140.34008774 508.56106402 133.3355999 511.57694817 C126.5794906 513.50013379 119.34725787 512.99946975 112.37524414 512.97094727 C110.55764569 512.97801252 108.74005312 512.98676008 106.92247009 512.99705505 C102.00503602 513.01949069 97.08792469 513.01662296 92.17045903 513.00773358 C88.05770972 513.00261094 83.94502037 513.0099266 79.83227724 513.01720566 C70.12649377 513.03418616 60.4208676 513.03065742 50.71508789 513.01391602 C40.71805038 512.99699469 30.72144954 513.01283367 20.72445971 513.0451389 C12.12543424 513.07186896 3.52654442 513.07910161 -5.07251841 513.07062382 C-10.2013926 513.06570481 -15.33000413 513.06785469 -20.45884514 513.08841133 C-25.28291493 513.10682224 -30.10635858 513.10074377 -34.93039513 513.07621193 C-36.69517457 513.07122126 -38.46000217 513.07464826 -40.22474289 513.08736038 C-50.47721593 513.15533995 -59.47741788 512.98449361 -67.53132534 505.79055119 C-71.79800128 501.43101634 -73.86086485 496.03026484 -76.0625 490.4375 C-82.02284934 476.00227895 -88.36779063 460.90276859 -100.6875 450.625 C-107.81223714 447.80479155 -117.71986497 453.0872755 -124.625 455.5 C-135.6608159 459.27553347 -146.78073342 462.48572657 -158.0625 465.4375 C-158.80732635 465.63272247 -159.55215271 465.82794495 -160.31954956 466.02908325 C-186.0917258 472.76098076 -186.0917258 472.76098076 -199.11328125 466.21875 C-209.21305243 460.10796408 -213.53225516 450.1719133 -216.28125 439.03125 C-217.51778821 431.13642911 -217.11408971 423.11264128 -215.15234375 415.39453125 C-214.40371048 412.24272225 -214.25547416 409.64683481 -214.6875 406.4375 C-217.97315092 401.94711041 -222.56349841 399.64061331 -227.3828125 397.0625 C-230.13287116 395.12347559 -231.2804091 393.48317094 -232.6875 390.4375 C-233.015625 387.97265625 -233.015625 387.97265625 -232.9375 385.5 C-232.91171875 384.63761719 -232.8859375 383.77523438 -232.859375 382.88671875 C-232.65850794 380.02436308 -232.27866348 377.24552655 -231.6875 374.4375 C-232.24179688 374.05078125 -232.79609375 373.6640625 -233.3671875 373.265625 C-234.09164062 372.74484375 -234.81609375 372.2240625 -235.5625 371.6875 C-236.28179687 371.17703125 -237.00109375 370.6665625 -237.7421875 370.140625 C-240.32001011 367.88373613 -241.46928474 365.77311698 -242.0234375 362.38134766 C-242.13422794 356.26987007 -240.57264257 352.13441839 -237.6875 346.8125 C-234.8870815 341.59009793 -232.74394647 337.55927532 -233.6875 331.4375 C-235.20867522 329.52930127 -235.20867522 329.52930127 -237.5 328.375 C-238.31597656 327.89160156 -239.13195312 327.40820312 -239.97265625 326.91015625 C-241.31650391 326.18119141 -241.31650391 326.18119141 -242.6875 325.4375 C-244.10869141 324.66212891 -244.10869141 324.66212891 -245.55859375 323.87109375 C-247.45063995 322.84677023 -249.34383722 321.8245695 -251.23828125 320.8046875 C-257.51038715 317.30351196 -260.96864098 313.12076932 -264 306.625 C-265.37106814 300.26822955 -264.29378563 294.38682524 -261.16015625 288.71484375 C-254.45371563 278.34387589 -246.13097292 269.39108637 -237.6875 260.4375 C-228.61326174 250.76401959 -223.12050778 241.29131982 -219.6875 228.4375 C-219.12979333 226.64433549 -218.56770151 224.85252533 -218 223.0625 C-217.51677825 221.53454742 -217.08208442 219.99070491 -216.6875 218.4375 C-216.3678125 217.31988281 -216.048125 216.20226562 -215.71875 215.05078125 C-215.68491349 211.1384347 -215.77075071 210.82601829 -218.29296875 208.19140625 C-219.46788996 207.10655792 -220.66290217 206.04314649 -221.875 205 C-227.7820286 199.78867379 -231.18676481 194.93970556 -233.6875 187.4375 C-233.76155314 177.01081724 -231.08399539 168.74364566 -226.85546875 159.37109375 C-222.45654584 149.48982734 -219.32493377 139.81763057 -216.83203125 129.2902832 C-213.21340138 114.04680487 -208.19690124 100.19226979 -200.6875 86.4375 C-200.11 85.36757812 -199.5325 84.29765625 -198.9375 83.1953125 C-192.57073172 71.84713757 -184.59997122 61.8797335 -175.6875 52.4375 C-174.99140625 51.67695312 -174.2953125 50.91640625 -173.578125 50.1328125 C-144.0316381 18.96881719 -95.93684425 11.39764415 -55.6875 4.4375 C-54.49479492 4.22432129 -53.30208984 4.01114258 -52.07324219 3.79150391 C-34.69296234 0.77685014 -17.60549208 0.05114774 0 0 Z " fill="#438DFE" transform="translate(285.6875,-0.43749999999999994)"/>
<path d="M0 0 C1.39946613 0.25929277 2.79920629 0.51711097 4.19921875 0.7734375 C39.96461198 7.78200107 73.85457424 30.34609181 100 55 C100.74765625 55.68320313 101.4953125 56.36640625 102.265625 57.0703125 C123.146689 76.8562158 133.35612735 104.19061356 138 132 C138.17877686 133.05227783 138.35755371 134.10455566 138.54174805 135.1887207 C140.06556862 145.17670275 140.3401395 154.99914511 140.31567383 165.0871582 C140.31251601 167.79875044 140.33606533 170.50924477 140.36132812 173.22070312 C140.41757158 188.16984024 139.43566921 203.16400661 133.4375 217.0625 C133.09235352 217.8884668 132.74720703 218.71443359 132.39160156 219.56542969 C126.28710776 233.72242909 117.82646039 245.95367891 108.45068359 258.10644531 C79.57828001 295.79314377 65.06532662 338.71607631 71.14385986 386.49560547 C74.59605672 412.16165454 80.34503683 438.69007366 92 462 C92.46090535 469.14403292 92.46090535 469.14403292 90.6875 472.4375 C87.6664065 475.2348088 84.72769873 475.11334674 80.8125 475.0625 C79.91144531 475.05347656 79.01039063 475.04445313 78.08203125 475.03515625 C77.05142578 475.01775391 77.05142578 475.01775391 76 475 C74.52290743 471.07585742 73.04890435 467.15063075 71.58203125 463.22265625 C70.69583269 460.85020157 69.80017826 458.483268 68.88671875 456.12109375 C65.64281819 447.59083671 63.31252648 438.81660905 61 430 C60.75459473 429.08444336 60.50918945 428.16888672 60.25634766 427.22558594 C51.41933791 393.97865415 48.1484643 360.99906305 54 327 C54.29729004 325.2363208 54.29729004 325.2363208 54.60058594 323.43701172 C59.90071623 292.17269673 59.90071623 292.17269673 64.875 288.625 C70.34129602 284.12275982 72.45903386 279.83896148 73.4453125 272.83984375 C73.88870152 264.29014678 71.87014874 257.81660785 68.41015625 250.1796875 C67.32446717 247.73162403 66.51248949 245.60785792 66 243 C66.6290625 242.55011719 67.258125 242.10023438 67.90625 241.63671875 C80.03123817 232.5247171 87.53704395 220.22565316 92 205.8125 C93.51531449 200.950866 95.58788831 197.40015651 98.54296875 193.29296875 C105.49206897 182.35698529 106.8665306 167.53203008 104.63525391 154.94189453 C103.41805825 149.89072658 101.8839763 145.32596445 99 141 C99.20538269 139.18578621 99.42202962 137.37222738 99.69140625 135.56640625 C101.00496495 124.64225352 100.66888595 115.32913813 94.01171875 106.3046875 C88.58437297 99.87436072 83.5577131 96.79563603 75.88671875 93.7734375 C73 92 73 92 71.75 89.28515625 C71.5025 88.22167969 71.255 87.15820312 71 86.0625 C67.92609639 74.72433094 62.78360277 65.76036861 55 57 C54.44570313 56.36320312 53.89140625 55.72640625 53.3203125 55.0703125 C43.30552697 44.28884482 28.39392938 37.36660925 14 35 C11.58366644 34.94215524 9.1668882 34.9007939 6.75 34.875 C0.68325916 34.56303411 0.68325916 34.56303411 -2.2421875 32.15234375 C-3.51161889 30.57477237 -4.75875507 28.97903219 -5.984375 27.3671875 C-10.78080795 21.7341674 -17.17804589 19.11206727 -24.45703125 18.49609375 C-35.36581772 18.0218971 -43.67302557 19.47886181 -52 27 C-56.72726482 25.13168762 -61.39286077 23.12832388 -66.0625 21.12109375 C-78.56066616 16.35118193 -95.83009856 17.23048458 -107.99609375 22.45703125 C-115.19721606 26.15591722 -120.89232396 29.53555351 -125.9375 35.9375 C-129.03818694 39.26849159 -131.21682336 40.25390096 -135.65625 40.46484375 C-139.1902262 40.46285278 -142.71229187 40.30441282 -146.2421875 40.14453125 C-156.28201017 39.70199926 -164.22108024 43.83174614 -172 50 C-178.28701686 56.48494146 -182.70294298 63.55092941 -183.625 72.5625 C-184.15595263 76.03521718 -184.51527742 77.54325954 -187.09765625 79.9765625 C-188.84155185 81.12863833 -190.60823958 82.24685262 -192.39453125 83.33203125 C-198.99259407 87.55597851 -204.16850548 94.35142914 -206 102 C-206.23925764 104.93455326 -206.30431128 107.86966496 -206.375 110.8125 C-206.55109073 117.9818041 -207.8333911 122.65798272 -211.43359375 128.96484375 C-218.39078829 142.44549252 -219.20140206 159.77447065 -214.97265625 174.171875 C-207.88367444 194.78401489 -196.59143645 209.34096621 -177 219 C-164.22495128 224.81067745 -150.45796275 227.11932379 -136.6875 223.6875 C-134.3203125 223.390625 -134.3203125 223.390625 -132 224 C-129.63698624 226.4611581 -127.74594562 228.94756693 -125.81469727 231.74487305 C-118.62886809 242.12067964 -107.24694099 248.29734604 -95 251 C-78.47234774 252.02666679 -64.96164453 249.5107847 -51 240 C-50.34 239.34 -49.68 238.68 -49 238 C-46.42578125 238.20703125 -46.42578125 238.20703125 -43.3125 238.8125 C-41.70568359 239.11220703 -41.70568359 239.11220703 -40.06640625 239.41796875 C-39.05449219 239.61003906 -38.04257812 239.80210937 -37 240 C-34.66935931 240.36064823 -32.3368109 240.68134397 -30 241 C-29.81566406 241.60585938 -29.63132812 242.21171875 -29.44140625 242.8359375 C-24.75990127 256.36028521 -15.20727152 262.80334283 -3 269 C-1.89011719 269.46535156 -0.78023438 269.93070312 0.36328125 270.41015625 C3 272 3 272 3.64770508 274.23217773 C5.51130794 288.87366468 5.09531102 304.36045665 0.95458984 318.546875 C-3.04018004 332.23987933 -3.37610159 346.28293055 -3.3125 360.4375 C-3.31026428 361.67566467 -3.31026428 361.67566467 -3.3079834 362.93884277 C-3.24420124 382.69132187 -1.24841687 401.78581763 3.51464844 420.97607422 C3.97167366 422.88187861 4.366871 424.80220652 4.7578125 426.72265625 C7.28335325 438.77414438 11.31443461 450.31853182 15.29125977 461.95336914 C15.53395096 462.66550568 15.77664215 463.37764221 16.02668762 464.11135864 C16.48977572 465.46736336 16.95579715 466.82237075 17.4250946 468.17623901 C19 472.77904406 19 472.77904406 19 475 C4.74419994 475.09347935 -9.51155252 475.16373073 -23.76759624 475.20724869 C-30.38708302 475.22813389 -37.00636406 475.25646928 -43.62573242 475.30175781 C-50.01237323 475.34518121 -56.39881601 475.36913008 -62.78559303 475.37950897 C-65.22369314 475.38690656 -67.66178227 475.40135207 -70.0997982 475.42292023 C-73.51167703 475.45190658 -76.92273488 475.45595786 -80.3347168 475.45410156 C-81.34532166 475.46848267 -82.35592651 475.48286377 -83.39715576 475.49768066 C-87.72997799 475.47212947 -90.28879149 475.42170116 -94.07380676 473.1774292 C-96.5849418 470.33876346 -97.62881422 467.35997831 -98.75 463.8125 C-103.22051694 450.942875 -109.47691291 439.28679997 -117.95703125 428.61328125 C-120.13726445 425.82441699 -122.06839054 422.96469497 -124 420 C-123.23558594 419.73372803 -122.47117188 419.46745605 -121.68359375 419.19311523 C-81.12077163 406.87399264 -81.12077163 406.87399264 -52.89453125 377.70703125 C-50.85203442 372.28914059 -50.09203985 366.74697501 -51 361 C-52.35762154 358.22435155 -52.35762154 358.22435155 -55 357 C-58.78933956 356.45866578 -60.99355424 356.40157279 -64.3125 358.375 C-66.44632535 361.69428388 -66.79761393 364.69354967 -67.45703125 368.54296875 C-68.23517639 372.06421546 -69.71902687 374.22584349 -72 377 C-72.42539063 377.54011719 -72.85078125 378.08023437 -73.2890625 378.63671875 C-83.20077026 389.94623145 -99.92753373 394.43736287 -113.6875 399.0625 C-115.55969793 399.70195622 -117.43151649 400.3425241 -119.30297852 400.98413086 C-123.2081096 402.32063007 -127.11571197 403.64952107 -131.02539062 404.97265625 C-136.98771751 406.99213046 -142.93960349 409.04124874 -148.890625 411.09375 C-151.80243828 412.09557259 -154.71454555 413.0965332 -157.62686157 414.09689331 C-159.46514033 414.72844173 -161.30318333 415.36067688 -163.14096069 415.99368286 C-178.67968857 421.33773357 -194.29622855 426.40774164 -210.25 430.375 C-210.91246231 430.54208969 -211.57492462 430.70917938 -212.25746155 430.8813324 C-218.1336877 432.25431517 -223.72341486 433.13829257 -229.25 430.375 C-233.55867935 426.65386783 -236.26935737 422.40170276 -238 417 C-238.16324948 414.24966132 -238.23498063 411.61888088 -238.1875 408.875 C-238.18685547 408.15957031 -238.18621094 407.44414062 -238.18554688 406.70703125 C-238.15897902 403.54840896 -238.00523113 401.01569338 -237 398 C-236.24902182 389.09282843 -235.59414905 380.68273307 -241 373.09375 C-244.54160997 369.38612706 -248.61308587 366.61827682 -253 364 C-252.45276317 360.62537285 -251.9451 358.91765 -250 356 C-249.07992272 352.71618871 -249.07992272 352.71618871 -250 349 C-253.50261549 345.02367012 -257.60600299 341.92933134 -262 339 C-261.38082372 335.12311214 -260.19146301 331.97285438 -258.5 328.4375 C-255.02073946 321.14521265 -253.37461094 313.72802771 -255.6484375 305.71484375 C-259.72084696 296.68244842 -267.94623877 292.68843026 -276.31347656 288.24633789 C-280.1037204 286.20847006 -283.12246647 284.28648532 -286 281 C-282.62893571 271.71304837 -275.74519838 264.56209282 -269.0625 257.5 C-256.54800701 244.24126762 -246.23849584 231.09511685 -242 213 C-241.05163689 209.00957982 -240.13982307 205.29577958 -238.375 201.5625 C-236.30253804 196.19293947 -235.97038508 191.84309305 -237.94921875 186.37890625 C-240.75009424 180.43256806 -244.1032383 176.48062243 -249.09375 172.20703125 C-250.19203125 171.20736328 -250.19203125 171.20736328 -251.3125 170.1875 C-252.00988281 169.58292969 -252.70726562 168.97835937 -253.42578125 168.35546875 C-255.73825262 164.89536891 -255.71208414 161.96171021 -255 158 C-253.67287261 153.9857591 -251.9804665 150.16711942 -250.25 146.3125 C-249.32015189 144.15930379 -248.39431858 142.00436903 -247.47265625 139.84765625 C-247.0358252 138.82687988 -246.59899414 137.80610352 -246.14892578 136.75439453 C-242.28764051 127.49748411 -240.10256353 117.69905483 -237.7487793 107.97558594 C-236.67813758 103.56762466 -235.43914224 99.30463433 -234 95 C-233.41630557 91.41538144 -233.41630557 91.41538144 -234 88 C-235.93126102 85.32161427 -235.93126102 85.32161427 -239 84 C-243.2587625 84.14685388 -245.4423257 84.62821713 -249 87 C-243.31955182 67.11843136 -229.80328633 43.49475137 -213 31 C-212.87882812 31.71027344 -212.75765625 32.42054687 -212.6328125 33.15234375 C-212.46523437 34.07144531 -212.29765625 34.99054687 -212.125 35.9375 C-211.96257812 36.85402344 -211.80015625 37.77054688 -211.6328125 38.71484375 C-211.31957031 39.84599609 -211.31957031 39.84599609 -211 41 C-207.7593152 42.6203424 -204.503217 42.56747924 -201 42 C-198.47605674 40.3997376 -196.55562873 38.96677235 -194.375 37 C-163.05097267 10.82731506 -116.17579087 4.21041275 -77 -1 C-76.1455127 -1.11859375 -75.29102539 -1.2371875 -74.41064453 -1.359375 C-50.24216887 -4.61217204 -23.90313693 -5.07864922 0 0 Z " fill="#E7ECFC" transform="translate(325,20)"/>
<path d="M0 0 C1.93359375 1.0703125 1.93359375 1.0703125 3.93359375 3.0703125 C3.98542149 6.23180441 3.87903308 9.33109035 3.6796875 12.484375 C3.56425464 15.93378041 3.66212158 17.70699321 5.7578125 20.51171875 C7.90071842 22.27670411 7.90071842 22.27670411 10.87109375 22.6328125 C15.14504166 21.84780166 16.39538367 20.59560428 18.93359375 17.0703125 C19.58929199 14.56028293 20.00722899 12.06406005 20.421875 9.50390625 C21.42064849 4.754014 24.00237212 1.95497305 27.43359375 -1.3046875 C33.02903834 -3.90257249 39.22182274 -4.1669445 45.125 -2.19921875 C50.22001087 0.49684532 53.28802269 4.13359933 55.09375 9.55078125 C55.39152344 10.77410156 55.68929687 11.99742188 55.99609375 13.2578125 C57.06020344 18.60490661 57.06020344 18.60490661 60.93359375 22.0703125 C63.84851925 22.6541321 63.84851925 22.6541321 66.93359375 22.0703125 C69.7410026 19.82438542 71.54523531 18.17564037 72.74609375 14.7578125 C72.80796875 14.2009375 72.86984375 13.6440625 72.93359375 13.0703125 C85.64529827 11.82406696 97.48952453 19.14707463 107.11328125 26.8046875 C115.36592309 34.31876607 121.4086259 45.0142956 122.93359375 56.0703125 C122.3303125 56.31265625 121.72703125 56.555 121.10546875 56.8046875 C114.68797247 59.32420283 114.68797247 59.32420283 109.93359375 64.0703125 C109.3657543 68.04518867 109.31018856 70.13520471 111.55859375 73.5078125 C114.72694302 75.59225281 116.18115246 75.64761116 119.93359375 75.0703125 C121.22203627 74.43834915 122.49219431 73.76830821 123.74609375 73.0703125 C128.20248855 70.69356861 131.95690163 70.21046517 136.93359375 71.0703125 C143.11093079 73.11484706 146.77459278 76.28423833 150.01171875 81.9609375 C151.86792351 86.20818567 151.54965248 90.72488892 150.38671875 95.15234375 C148.43824091 99.81214688 145.72643428 102.15508293 141.68359375 105.1328125 C137.5992113 108.06992797 137.5992113 108.06992797 136.12109375 112.8203125 C137.07423093 117.06026932 137.07423093 117.06026932 139.93359375 120.0703125 C145.45559014 120.69376371 148.32076584 120.32642632 152.93359375 117.0703125 C153.59359375 117.0703125 154.25359375 117.0703125 154.93359375 117.0703125 C157.7004731 125.37095056 157.07591241 137.00935666 153.25390625 144.8671875 C147.32533816 154.75982774 140.03891641 161.63163566 128.671875 164.6015625 C117.89972119 166.44558312 108.05411006 165.24872677 98.93359375 159.0703125 C99.22234375 158.60625 99.51109375 158.1421875 99.80859375 157.6640625 C103.85475386 150.13370896 103.80974928 142.36802071 102.93359375 134.0703125 C101.95196453 130.81350527 100.89648836 128.89919002 98.93359375 126.0703125 C96.04497666 124.62600395 94.13711674 124.69342744 90.93359375 125.0703125 C87.85026042 126.98697917 87.85026042 126.98697917 85.93359375 130.0703125 C86.04303639 133.42848915 86.04303639 133.42848915 86.93359375 137.0703125 C87.39077441 142.50049917 87.55276777 146.67560119 83.93359375 151.0703125 C80.15851045 154.4051053 77.38650934 154.6962041 72.46875 154.55859375 C67.23011158 153.549611 64.23392096 149.61445106 60.93359375 145.6953125 C58.90143777 143.75947131 58.90143777 143.75947131 55.43359375 143.5703125 C51.94053953 143.8125015 51.94053953 143.8125015 49.49609375 145.6953125 C47.36358881 148.93672001 47.20873134 150.22854175 47.93359375 154.0703125 C51.82411632 162.24775051 57.81447875 166.62204011 65.80859375 170.4453125 C71.74752274 171.6330983 77.7326958 171.59255947 83.62109375 170.1953125 C87.40068814 170.0526863 87.7260425 170.40446843 90.49609375 172.6953125 C103.31752084 183.04921966 118.35667931 181.66660192 133.93359375 181.0703125 C133.00344234 182.17368281 132.07061878 183.27480073 131.13671875 184.375 C130.35796387 185.29514893 130.35796387 185.29514893 129.56347656 186.23388672 C122.33738031 194.37569259 113.50324384 198.55526507 103.1328125 201.453125 C99.451468 202.48625543 96.65113589 203.35277036 93.93359375 206.0703125 C93.281612 211.2453732 93.281612 211.2453732 95.171875 215.80078125 C98.64334222 218.30239289 102.85175493 217.50645418 106.93359375 217.0703125 C110.66368501 216.25288696 114.29692573 215.23183385 117.93359375 214.0703125 C125.16310195 228.1850666 125.16310195 228.1850666 123.93359375 235.0703125 C121.90857377 238.87735005 120.67943509 239.8355106 116.55859375 241.1328125 C109.83166629 241.01683099 106.4344751 236.57119385 101.93359375 232.0703125 C95.46975654 226.23863541 87.9303552 223.27235254 79.93359375 220.0703125 C64.33024488 213.82246478 64.33024488 213.82246478 57.93359375 208.0703125 C57.37027344 207.57917969 56.80695313 207.08804688 56.2265625 206.58203125 C54.93359375 205.0703125 54.93359375 205.0703125 54.93359375 202.0703125 C56.27164063 201.79767578 56.27164063 201.79767578 57.63671875 201.51953125 C59.39242187 201.14248047 59.39242187 201.14248047 61.18359375 200.7578125 C62.34375 200.51417969 63.50390625 200.27054688 64.69921875 200.01953125 C67.8375445 199.09850087 69.66006189 198.39916144 71.93359375 196.0703125 C72.80738324 192.65771733 72.56660592 189.22462881 70.87109375 186.1328125 C66.67667342 183.83264651 62.98257035 183.77964636 58.4375 185.0390625 C53.00859325 186.46943689 47.64232097 186.40023986 42.05859375 186.3828125 C41.03378906 186.39892578 40.00898438 186.41503906 38.953125 186.43164062 C32.91828725 186.4354747 27.80192573 185.76348743 22.09155273 183.78271484 C18.22954925 182.50775997 16.02851808 182.35532571 11.93359375 183.0703125 C9.5376764 184.87706985 7.45003949 186.863921 5.3046875 188.9609375 C-2.50353079 195.90729314 -11.2072208 197.51787582 -21.33203125 197.40234375 C-31.81346951 196.47041671 -40.36018148 191.02725415 -47.06640625 183.0703125 C-53.34842471 172.88602188 -55.1615596 163.91893975 -54.06640625 152.0703125 C-52.99887113 148.78185642 -51.73072381 145.82960105 -50.16015625 142.75390625 C-48.89016098 139.63788215 -48.76478845 137.40666944 -49.06640625 134.0703125 C-50.50301936 131.55024406 -50.50301936 131.55024406 -53.06640625 130.0703125 C-56.83923151 129.73936292 -59.47376173 129.87276433 -63.06640625 131.0703125 C-64.16892355 133.23653118 -64.16892355 133.23653118 -65.06640625 136.0703125 C-65.60462234 137.50910799 -66.14644459 138.94655841 -66.69140625 140.3828125 C-67.14515625 141.5996875 -67.59890625 142.8165625 -68.06640625 144.0703125 C-73.82193122 142.74211443 -76.97808286 141.31881556 -80.19140625 136.3203125 C-81.26489092 133.55992334 -81.84186986 130.77909201 -82.40625 127.875 C-83.00636315 125.68361604 -83.00636315 125.68361604 -86.06640625 124.0703125 C-89.86762362 123.65563424 -92.17487798 123.54453942 -95.50390625 125.5078125 C-97.8741283 129.39497666 -97.7456353 132.63453094 -97.06640625 137.0703125 C-94.69273708 145.81821685 -90.49092064 152.28326667 -82.62890625 156.8828125 C-78.85023703 158.82978783 -75.19878164 160.10316081 -71.06640625 161.0703125 C-71.06640625 163.7103125 -71.06640625 166.3503125 -71.06640625 169.0703125 C-77.84128597 172.45775236 -89.78828113 170.80946508 -96.9296875 169.19921875 C-112.06343159 163.6713242 -123.15582283 153.5243793 -130.06640625 139.0703125 C-135.64090126 124.82255907 -135.36619566 112.31349655 -130.06640625 98.0703125 C-129.55851563 98.43125 -129.050625 98.7921875 -128.52734375 99.1640625 C-125.29132221 101.34565006 -122.74263384 102.93771886 -118.87890625 103.6953125 C-114.89384252 102.80974278 -113.39913294 101.39268081 -111.06640625 98.0703125 C-110.50234715 94.58666249 -110.50234715 94.58666249 -112.06640625 91.0703125 C-113.97950267 89.16145798 -116.016258 87.51008233 -118.12109375 85.81640625 C-121.45691472 82.8222055 -122.73189328 79.48358466 -123.33984375 75.09765625 C-123.58757679 70.15252371 -122.55855511 66.41147503 -120.06640625 62.0703125 C-115.44640949 57.11553336 -111.59559928 55.01232512 -104.81640625 54.6953125 C-99.54181633 54.74745013 -96.09580316 56.80048007 -92.06640625 60.0703125 C-91.40640625 60.8334375 -90.74640625 61.5965625 -90.06640625 62.3828125 C-87.76892137 64.32131536 -86.9323308 64.39088811 -84.00390625 64.5078125 C-80.28658764 64.32444709 -80.28658764 64.32444709 -78.06640625 63.0703125 C-76.41291747 59.76333495 -76.36487068 56.61846355 -77.06640625 53.0703125 C-82.17088191 44.93505442 -89.89134436 41.77640788 -98.94140625 39.55078125 C-99.99328125 39.31294922 -99.99328125 39.31294922 -101.06640625 39.0703125 C-100.64450831 33.44500661 -98.67024413 29.32554831 -95.06640625 25.0703125 C-89.62927738 20.65383765 -84.98278858 17.91555429 -77.87890625 18.0078125 C-76.97785156 18.01683594 -76.07679688 18.02585937 -75.1484375 18.03515625 C-74.46136719 18.04675781 -73.77429688 18.05835937 -73.06640625 18.0703125 C-73.19660156 18.73417969 -73.32679688 19.39804688 -73.4609375 20.08203125 C-74.41803994 25.94704342 -74.41803994 25.94704342 -72.06640625 31.2578125 C-69.13329674 33.37271257 -69.13329674 33.37271257 -65.44140625 33.1328125 C-61.65636656 31.94122593 -61.10315756 31.3131847 -59.06640625 28.0703125 C-58.43688193 26.52584393 -57.85524685 24.96120879 -57.31640625 23.3828125 C-52.83731018 11.81891048 -44.24409791 4.30153412 -33.30078125 -0.94921875 C-23.41357928 -5.2878336 -9.7459961 -4.10517776 0 0 Z " fill="#C9D8FC" transform="translate(258.06640625,57.9296875)"/>
<path d="M0 0 C31.5792233 7.61709909 61.75209825 29.07832083 85 51 C85.74765625 51.68320313 86.4953125 52.36640625 87.265625 53.0703125 C108.146689 72.8562158 118.35612735 100.19061356 123 128 C123.17877686 129.05227783 123.35755371 130.10455566 123.54174805 131.1887207 C125.06556862 141.17670275 125.3401395 150.99914511 125.31567383 161.0871582 C125.31251601 163.79875044 125.33606533 166.50924477 125.36132812 169.22070312 C125.41757158 184.16984024 124.43566921 199.16400661 118.4375 213.0625 C118.09235352 213.8884668 117.74720703 214.71443359 117.39160156 215.56542969 C111.28710776 229.72242909 102.82646039 241.95367891 93.45068359 254.10644531 C64.57828001 291.79314377 50.06532662 334.71607631 56.14385986 382.49560547 C59.59605672 408.16165454 65.34503683 434.69007366 77 458 C77.46090535 465.14403292 77.46090535 465.14403292 75.6875 468.4375 C72.6664065 471.2348088 69.72769873 471.11334674 65.8125 471.0625 C64.91144531 471.05347656 64.01039063 471.04445313 63.08203125 471.03515625 C62.05142578 471.01775391 62.05142578 471.01775391 61 471 C59.52290743 467.07585742 58.04890435 463.15063075 56.58203125 459.22265625 C55.69583269 456.85020157 54.80017826 454.483268 53.88671875 452.12109375 C50.64281819 443.59083671 48.31252648 434.81660905 46 426 C45.75459473 425.08444336 45.50918945 424.16888672 45.25634766 423.22558594 C35.42284489 386.22961049 33.23172531 350.49513843 41 313 C41.33 313.66 41.66 314.32 42 315 C42.66 315 43.32 315 44 315 C44.103125 314.17371094 44.20625 313.34742188 44.3125 312.49609375 C48.09518847 293.26026316 61.02123194 276.66808821 72.34472656 261.25537109 C93.83945204 231.96801505 107.18882007 205.49193705 107.18530273 168.62670898 C107.18746849 166.09926973 107.20561779 163.57228311 107.22460938 161.04492188 C107.28213355 145.04198982 106.02246272 129.40197397 102.25 113.8125 C101.98687012 112.70737061 101.72374023 111.60224121 101.45263672 110.46362305 C93.76264267 79.14716426 76.69810331 52.61435356 51 33 C50.35321289 32.50532227 49.70642578 32.01064453 49.04003906 31.50097656 C33.62381882 19.82202183 17.16102626 9.89367054 0 1 C0 0.67 0 0.34 0 0 Z " fill="#C8D8FC" transform="translate(340,24)"/>
<path d="M0 0 C-1.34910671 4.04732012 -3.31891839 4.75732239 -6.875 7.0625 C-39.17880137 28.7686994 -55.02991198 65.39509917 -63.49707031 102.15820312 C-64.7617356 107.62658305 -66.73950057 112.69105529 -68.875 117.875 C-69.21402344 118.70902344 -69.55304688 119.54304688 -69.90234375 120.40234375 C-72.75737276 127.42593223 -72.75737276 127.42593223 -74.13183594 130.67797852 C-74.4930957 131.54608154 -74.85435547 132.41418457 -75.2265625 133.30859375 C-75.55479004 134.08517334 -75.88301758 134.86175293 -76.22119141 135.66186523 C-78.06971559 141.21149411 -77.70723277 146.16762418 -75.625 151.5625 C-72.9405667 155.66639983 -69.01941113 158.61290182 -65.3515625 161.8046875 C-61.3240967 165.5645476 -59.32331959 168.81759275 -58.5 174.375 C-59.0436234 178.31626965 -60.27742796 181.07987752 -61.99609375 184.625 C-63.02237181 187.05292631 -63.50916621 189.2175458 -63.9375 191.8125 C-66.48283765 205.98739761 -74.21936401 217.66914857 -84.453125 227.46875 C-88.68144172 231.67112613 -92.29781173 236.33724397 -96 241 C-96.72574219 241.87011719 -97.45148438 242.74023438 -98.19921875 243.63671875 C-105.48641323 252.1539956 -105.48641323 252.1539956 -108.0625 262.6875 C-105.36393711 271.10066665 -96.2492436 274.5662401 -89.046875 278.69140625 C-83.2635371 282.14749187 -79.33524302 284.55028119 -77 291 C-75.63717323 298.9718039 -78.74853664 304.78317084 -82.4140625 311.6484375 C-83.10628906 312.96714844 -83.10628906 312.96714844 -83.8125 314.3125 C-84.25207031 315.11300781 -84.69164062 315.91351563 -85.14453125 316.73828125 C-86.16048085 319.42428499 -85.97011956 320.34245062 -85 323 C-82.84465678 324.88914545 -80.74682179 326.57580254 -78.4375 328.25 C-77.82197266 328.70890625 -77.20644531 329.1678125 -76.57226562 329.640625 C-75.05505208 330.76971415 -73.52840817 331.88611143 -72 333 C-73.859375 337.765625 -73.859375 337.765625 -75.125 339.875 C-76.58968965 343.43210344 -76.84240189 345.17679144 -76 349 C-73.41133197 351.03041615 -70.68709296 352.60920886 -67.84375 354.26171875 C-63.24015838 357.07572736 -59.8411734 360.00015269 -58.3515625 365.3125 C-57.60727521 370.60520962 -58.33167684 375.08437809 -59.50390625 380.2421875 C-61.35764271 390.54721064 -59.85043783 399.39710083 -56 409 C-55.505 410.485 -55.505 410.485 -55 412 C-58.73052567 413.24350856 -62.12552043 413.52198871 -66 413 C-71.61416991 410.19291504 -74.326283 406.32956513 -77.09765625 400.81640625 C-78.27207259 397.15080373 -78.25332936 393.67924413 -78.1875 389.875 C-78.18685547 389.15957031 -78.18621094 388.44414062 -78.18554688 387.70703125 C-78.15897902 384.54840896 -78.00523113 382.01569338 -77 379 C-76.24902182 370.09282843 -75.59414905 361.68273307 -81 354.09375 C-84.54160997 350.38612706 -88.61308587 347.61827682 -93 345 C-92.45276317 341.62537285 -91.9451 339.91765 -90 337 C-89.07992272 333.71618871 -89.07992272 333.71618871 -90 330 C-93.50261549 326.02367012 -97.60600299 322.92933134 -102 320 C-101.38082372 316.12311214 -100.19146301 312.97285438 -98.5 309.4375 C-95.02073946 302.14521265 -93.37461094 294.72802771 -95.6484375 286.71484375 C-99.72084696 277.68244842 -107.94623877 273.68843026 -116.31347656 269.24633789 C-120.1037204 267.20847006 -123.12246647 265.28648532 -126 262 C-122.62893571 252.71304837 -115.74519838 245.56209282 -109.0625 238.5 C-96.54800701 225.24126762 -86.23849584 212.09511685 -82 194 C-81.05163689 190.00957982 -80.13982307 186.29577958 -78.375 182.5625 C-76.30253804 177.19293947 -75.97038508 172.84309305 -77.94921875 167.37890625 C-80.75009424 161.43256806 -84.1032383 157.48062243 -89.09375 153.20703125 C-90.19203125 152.20736328 -90.19203125 152.20736328 -91.3125 151.1875 C-92.00988281 150.58292969 -92.70726562 149.97835937 -93.42578125 149.35546875 C-95.73825262 145.89536891 -95.71208414 142.96171021 -95 139 C-93.67287261 134.9857591 -91.9804665 131.16711942 -90.25 127.3125 C-89.32015189 125.15930379 -88.39431858 123.00436903 -87.47265625 120.84765625 C-87.0358252 119.82687988 -86.59899414 118.80610352 -86.14892578 117.75439453 C-82.28764051 108.49748411 -80.10256353 98.69905483 -77.7487793 88.97558594 C-76.67813758 84.56762466 -75.43914224 80.30463433 -74 76 C-73.41630557 72.41538144 -73.41630557 72.41538144 -74 69 C-75.93126102 66.32161427 -75.93126102 66.32161427 -79 65 C-83.2587625 65.14685388 -85.4423257 65.62821713 -89 68 C-83.31955182 48.11843136 -69.80328633 24.49475137 -53 12 C-52.87882812 12.71027344 -52.75765625 13.42054687 -52.6328125 14.15234375 C-52.46523437 15.07144531 -52.29765625 15.99054687 -52.125 16.9375 C-51.96257812 17.85402344 -51.80015625 18.77054688 -51.6328125 19.71484375 C-51.31957031 20.84599609 -51.31957031 20.84599609 -51 22 C-47.7593152 23.6203424 -44.503217 23.56747924 -41 23 C-38.47634954 21.39992325 -36.55454611 19.96769938 -34.375 18 C-25.36256255 10.412449 -12.21502078 0 0 0 Z " fill="#FCFDFE" transform="translate(165,39)"/>
<path d="M0 0 C0.45890625 0.39614502 0.9178125 0.79229004 1.390625 1.20043945 C10.88978795 9.37881157 10.88978795 9.37881157 22 15 C21.44993402 23.08546522 20.1797124 30.87731497 18.5625 38.8125 C15.70887709 52.91126009 13.6253641 66.51740233 13.6875 80.9375 C13.68899048 81.60609039 13.69048096 82.27468079 13.6920166 82.96353149 C13.74172298 95.47822605 14.82052736 107.67192592 17 120 C17.14985352 120.85062012 17.29970703 121.70124023 17.45410156 122.57763672 C18.36034086 127.58888989 19.37195982 132.57075001 20.46289062 137.54492188 C20.818317 139.1695435 21.16609777 140.79585841 21.50585938 142.42382812 C24.78008975 158.06737326 29.82417339 173.04821015 35.04785156 188.12524414 C35.79684142 190.38661736 36.42223582 192.68894328 37 195 C30.07 195 23.14 195 16 195 C3.58224252 158.28925094 -8.2134206 122.84693792 -8.25 83.6875 C-8.25133942 82.8422879 -8.25267883 81.99707581 -8.25405884 81.12625122 C-8.24838018 64.60234418 -6.80958694 48.92727869 -2.6484375 32.88671875 C-0.98904524 25.4994243 -0.73927819 18.03950746 -0.4375 10.5 C-0.37272461 8.98019531 -0.37272461 8.98019531 -0.30664062 7.4296875 C-0.20150808 4.9532321 -0.09936163 2.47669251 0 0 Z " fill="#C8D7FC" transform="translate(346,300)"/>
<path d="M0 0 C3.42264067 2.40313068 4.76814736 3.88710733 5.625 8 C4.61824272 20.18706175 -3.05255345 31.48961253 -11.625 39.75 C-18.9393185 45.73444241 -28.43947221 50.80878944 -38 51 C-38.04125 51.66 -38.0825 52.32 -38.125 53 C-40.36552727 60.68180778 -47.67479566 68.40075161 -54.45703125 72.4765625 C-61.06943604 75.86703092 -67.10471933 78.28694051 -74.625 78.375 C-75.73101562 78.40335937 -76.83703125 78.43171875 -77.9765625 78.4609375 C-81.66576301 77.89850125 -82.80842845 76.97614371 -85 74 C-85.69059386 69.16584296 -85.75252273 67.17895227 -83.125 63.0625 C-79.38458551 60.59382644 -77.00013429 60.59403707 -72.6328125 60.359375 C-66.82477347 59.56658629 -62.3145312 56.44277815 -58.4375 52.1875 C-57.7259375 51.1046875 -57.7259375 51.1046875 -57 50 C-57.928125 49.95875 -58.85625 49.9175 -59.8125 49.875 C-69.84673991 48.37795614 -78.16964359 41.02711565 -85 34 C-86.44430855 31.11138291 -86.37688506 29.20352299 -86 26 C-83.34150606 22.17841496 -81.77299868 21.15206531 -77.1875 20.25 C-72.54622008 20.52865095 -70.23117375 23.0503948 -67.01953125 26.1796875 C-59.7908443 32.69529314 -50.93619556 33.69215408 -41.58203125 33.46484375 C-33.50973343 32.92172751 -26.52070292 29.37821241 -20.68359375 23.77734375 C-16.29339217 18.433946 -13.73712204 12.94848814 -12.0625 6.25 C-11 3 -11 3 -9.3125 1.0625 C-5.94503746 -0.48471252 -3.66297593 -0.51410188 0 0 Z " fill="#448EFE" transform="translate(324,140)"/>
<path d="M0 0 C2.11155949 3.01651356 2.30936433 4.89453746 2.31640625 8.5 C1.48291548 11.44308464 0.14916073 12.63000739 -2.25 14.5 C-5.203125 15.3359375 -5.203125 15.3359375 -8.5 15.875 C-15.41619229 17.32654653 -20.36174212 19.4668471 -24.55078125 25.31640625 C-26.61188512 29.02639322 -27.52698515 32.58347375 -28.25 36.75 C-28.8017211 39.78914167 -29.22588513 41.46104522 -30.875 44.125 C-34.35855549 46.14179528 -37.33209728 46.37510532 -41.25 45.5 C-43.75 43.75 -43.75 43.75 -45.25 40.5 C-46.69818921 30.25707839 -44.05516248 22.06286323 -38.0625 13.8125 C-29.10739326 3.02826507 -14.21812954 -6.56221364 0 0 Z " fill="#448EFE" transform="translate(248.25,107.5)"/>
<path d="M0 0 C18.49932435 11.52220849 31.07405942 34.11606441 36 55 C33.56183415 55.0809723 31.12635616 55.14046972 28.6875 55.1875 C27.99720703 55.21263672 27.30691406 55.23777344 26.59570312 55.26367188 C21.57309678 55.33646327 21.57309678 55.33646327 19.18359375 53.93359375 C17.43802878 51.0819282 16.43663476 48.02478083 15.375 44.875 C10.7748629 32.02466506 4.5413425 20.30977717 -3.95703125 9.61328125 C-6.13726445 6.82441699 -8.06839054 3.96469497 -10 1 C-6.1920276 -0.84958659 -4.01443803 -1.49374438 0 0 Z " fill="#FCFDFE" transform="translate(211,439)"/>
<path d="M0 0 C2.76687935 8.30063806 2.14231866 19.93904416 -1.6796875 27.796875 C-6.52517564 35.88224575 -12.28238923 42.88991589 -21.57421875 45.80859375 C-23.69831596 46.29210096 -25.84850266 46.65849249 -28 47 C-28.21097393 44.21418518 -28.32565049 42.52429729 -26.828125 40.11328125 C-26.30734375 39.51902344 -25.7865625 38.92476562 -25.25 38.3125 C-20.15474461 31.96451043 -16.84373271 23.87742011 -16.90234375 15.671875 C-16.90556641 14.87265625 -16.90878906 14.0734375 -16.91210938 13.25 C-16.92048828 12.425 -16.92886719 11.6 -16.9375 10.75 C-16.94201172 9.90953125 -16.94652344 9.0690625 -16.95117188 8.203125 C-16.96292039 6.13538599 -16.98085478 4.06768376 -17 2 C-16.34 2.33 -15.68 2.66 -15 3 C-8.9323168 3.39788087 -5.18585576 0 0 0 Z " fill="#A2C1F7" transform="translate(413,175)"/>
<path d="M0 0 C12.91631697 1.39635859 25.22512203 8.1838149 34.08203125 17.5703125 C40.04441103 25.12346977 44.67496057 33.39346415 46 43 C45.07767578 43.39832031 45.07767578 43.39832031 44.13671875 43.8046875 C43.32847656 44.15789062 42.52023437 44.51109375 41.6875 44.875 C40.88699219 45.22304687 40.08648437 45.57109375 39.26171875 45.9296875 C36.8038166 47.02571894 36.8038166 47.02571894 34 49 C32.68 49 31.36 49 30 49 C29.84144531 48.11699219 29.68289063 47.23398438 29.51953125 46.32421875 C26.52639091 30.92856321 19.62959675 14.81088579 6.5546875 5.203125 C4.96015846 4.15343504 3.35044854 3.12623475 1.72265625 2.12890625 C1.15417969 1.75636719 0.58570313 1.38382812 0 1 C0 0.67 0 0.34 0 0 Z " fill="#A2C1F7" transform="translate(335,71)"/>
<path d="M0 0 C6.60141106 -0.55011759 11.49930552 0.1457719 17 4 C20.72635297 7.92247681 23.27620711 11.75711551 23.375 17.25 C23.21106348 22.25826069 22.11398967 26.03103584 19 30 C16.46589355 32.16748692 13.88200336 34.13916311 11.14453125 36.04296875 C8.63604623 38.33213268 8.29289795 39.67474679 8 43 C7.67 43 7.34 43 7 43 C6.71125 41.9275 6.4225 40.855 6.125 39.75 C5.22035586 36.20663406 5.22035586 36.20663406 3.875 34.0625 C2.73988077 31.38686182 3.15583883 30.03785934 3.875 27.25 C5.71639947 19.0298965 5.05848422 12.84762293 2 5 C1.608125 3.989375 1.21625 2.97875 0.8125 1.9375 C0.544375 1.298125 0.27625 0.65875 0 0 Z " fill="#A2C1F7" transform="translate(386,129)"/>
<path d="M0 0 C7.2295082 14.1147541 7.2295082 14.1147541 6 21 C3.97498002 24.80703755 2.74584134 25.7651981 -1.375 27.0625 C-5.81014124 26.98603205 -7.63226802 25.80644332 -11 23 C-12.2398279 20.5203442 -12.03267797 18.94766119 -11.9375 16.1875 C-11.85395468 10.81797607 -11.85395468 10.81797607 -14 6 C-16.54775306 5.10613836 -16.54775306 5.10613836 -19 5 C-19 4.67 -19 4.34 -19 4 C-17.78763672 3.81824219 -17.78763672 3.81824219 -16.55078125 3.6328125 C-15.48214844 3.46523438 -14.41351563 3.29765625 -13.3125 3.125 C-12.25675781 2.96257812 -11.20101563 2.80015625 -10.11328125 2.6328125 C-6.67283709 1.93350014 -3.47239101 0 0 0 Z " fill="#A1C0F7" transform="translate(376,272)"/>
<path d="M0 0 C2.9375 2.0625 2.9375 2.0625 5 5 C5.5625 8.5625 5.5625 8.5625 5 12 C2.38962477 15.30647529 0.35210142 16.78967311 -3.8125 17.4375 C-7 17 -7 17 -9.875 14.4375 C-11.73681798 11.88052271 -12.0597671 10.65335084 -12.625 7.375 C-12 4 -12 4 -9.9375 1.5625 C-6.22649861 -0.41143691 -4.14990033 -0.66694827 0 0 Z " fill="#4991FF" transform="translate(102,73)"/>
<path d="M0 0 C-6.36415726 6.98538737 -12.42349292 12.00908299 -21 16 C-21.66128906 16.32742188 -22.32257813 16.65484375 -23.00390625 16.9921875 C-26.93748248 18.84017633 -30.69456616 19.56067002 -35 20 C-32.1184945 17.02844746 -29.17185754 14.28623653 -26 11.625 C-22.28609832 8.42457336 -19.67552102 5.09689156 -17 1 C-17.99 0.67 -18.98 0.34 -20 0 C-17.22949974 -0.1946838 -14.45886998 -0.38102792 -11.6875 -0.5625 C-10.90181641 -0.61857422 -10.11613281 -0.67464844 -9.30664062 -0.73242188 C-8.1706543 -0.80493164 -8.1706543 -0.80493164 -7.01171875 -0.87890625 C-6.31522217 -0.9260376 -5.61872559 -0.97316895 -4.90112305 -1.02172852 C-3 -1 -3 -1 0 0 Z " fill="#A1C0F7" transform="translate(392,240)"/>
<path d="M0 0 C7.51858702 -0.44444849 12.88751251 -0.68190531 19 4 C20.03033593 5.31003269 21.03695495 6.63973458 22 8 C19.22592351 7.96701098 16.45994071 7.89990921 13.6875 7.8125 C12.90181641 7.80669922 12.11613281 7.80089844 11.30664062 7.79492188 C9.09698467 7.71029675 7.13502159 7.58052118 5 7 C3.08203125 4.57421875 3.08203125 4.57421875 2 2 C1.34 1.34 0.68 0.68 0 0 Z " fill="#A2C1F7" transform="translate(289,55)"/>
<path d="M0 0 C3 1 3 1 4.16796875 2.75 C6.76082305 8.4721612 7.39827624 12.7271493 7 19 C4.3458221 15.84388587 3.07732936 12.84829424 1.8125 8.9375 C1.46832031 7.89464844 1.12414062 6.85179687 0.76953125 5.77734375 C0 3 0 3 0 0 Z " fill="#E1E8FC" transform="translate(393,470)"/>
<path d="M0 0 C2 2 2 2 2.046875 3.8828125 C1.3633631 9.04512603 0.37066046 13.97424499 -1 19 C-1.33 19 -1.66 19 -2 19 C-2.21432579 12.35590042 -1.51233701 6.46794133 0 0 Z " fill="#D2E0FC" transform="translate(381,337)"/>
</svg>
