<?xml version="1.0" encoding="UTF-8"?>
<svg version="1.1" xmlns="http://www.w3.org/2000/svg" width="225" height="225">
<path d="M0 0 C74.25 0 148.5 0 225 0 C225 74.25 225 148.5 225 225 C150.75 225 76.5 225 0 225 C0 150.75 0 76.5 0 0 Z " fill="#FEFEFE" transform="translate(0,0)"/>
<path d="M0 0 C19.00614336 -1.25315231 38.02798957 7.61610931 53 19 C54.72963329 20.7185459 56.2504779 22.4641886 57.7421875 24.390625 C59.10709105 26.21834896 59.10709105 26.21834896 61.5 28.375 C64.8831712 31.92732976 67.39284309 35.86006402 70 40 C70.40734375 40.60070312 70.8146875 41.20140625 71.234375 41.8203125 C74.1955889 46.43379793 74.75769416 50.65715626 75 56 C72.69 56.66 70.38 57.32 68 58 C68.51220937 64.02663368 69.04386653 70.02416584 70 76 C70.2165625 77.36125 70.2165625 77.36125 70.4375 78.75 C70.93133132 81.26136141 70.93133132 81.26136141 73 84 C72.84854074 87.02918527 72.54408993 88.48254385 70.32421875 90.59375 C66.69197626 92.79140932 62.93333583 92.88182912 58.77734375 93.375 C55.68165078 94.07163977 54.76859066 94.40679039 53 97 C52.16143131 99.26775719 51.39837903 101.56403242 50.6875 103.875 C48.70619025 109.68684193 47.33833582 112.91562819 42 116 C41.34 116 40.68 116 40 116 C40 116.66 40 117.32 40 118 C38.40012764 118.27615058 36.794667 118.52007625 35.1875 118.75 C34.29417969 118.88921875 33.40085938 119.0284375 32.48046875 119.171875 C30 119 30 119 28.1953125 117.203125 C26.60434258 114.27074907 26.65676978 112.29501009 27 109 C27.48726562 108.06136108 27.48726562 108.06136108 27.984375 107.10375977 C29.12465489 104.74179058 29.36454088 102.94674429 29.5625 100.33984375 C29.63726562 99.46392578 29.71203125 98.58800781 29.7890625 97.68554688 C29.92998559 95.84963223 30.07060933 94.01369459 30.2109375 92.17773438 C30.28570312 91.30310547 30.36046875 90.42847656 30.4375 89.52734375 C30.52837891 88.33226196 30.52837891 88.33226196 30.62109375 87.11303711 C31 85 31 85 33 82 C35.6015625 80.83203125 35.6015625 80.83203125 38.625 79.8125 C39.62789062 79.46832031 40.63078125 79.12414062 41.6640625 78.76953125 C42.43492188 78.51558594 43.20578125 78.26164062 44 78 C41.3655958 75.13859498 39.17022106 73.38183893 35.5625 71.9375 C32.19222384 70.51931449 28.99895034 69.12828734 26 67 C26 66.34 26 65.68 26 65 C25.34 65 24.68 65 24 65 C21.15674768 60.79198657 20.95645148 58.32679667 21.8125 53.5 C22.28368738 50.66423204 22.28368738 50.66423204 22 48 C20.2028479 45.939207 18.47507408 44.80934766 16.078125 43.51171875 C11.52183631 40.19727566 10.60374365 34.98554401 9.71875 29.72265625 C9.6053125 28.98917969 9.491875 28.25570312 9.375 27.5 C9.25382812 26.76652344 9.13265625 26.03304687 9.0078125 25.27734375 C8.66364088 23.18612708 8.33143375 21.0932658 8 19 C7.66810199 16.99976131 7.33538549 14.99965689 7 13 C6.34 13 5.68 13 5 13 C3.60699818 11.04109119 2.27754554 9.0360882 1 7 C0.34 6.01 -0.32 5.02 -1 4 C-0.625 1.8125 -0.625 1.8125 0 0 Z " fill="#92D221" transform="translate(32,53)"/>
<path d="M0 0 C1.40185547 0.00966797 1.40185547 0.00966797 2.83203125 0.01953125 C5.1875 0.1875 5.1875 0.1875 7.1875 1.1875 C6.57219056 4.85406996 4.97507851 7.06252629 2.75 10 C-1.59932049 16.10680101 -2.70418676 21.41270708 -3.75 28.75 C-5.05335366 37.32469512 -5.05335366 37.32469512 -7.8125 41.1875 C-9.20613198 42.21133656 -10.60220564 43.23185349 -12 44.25 C-14.23462254 45.92176872 -14.23462254 45.92176872 -15.8125 48.1875 C-16.14906422 51.55740254 -15.93576317 54.71662524 -15.734375 58.09375 C-15.83843061 62.21435214 -16.91290138 63.97015285 -19.83984375 66.765625 C-24.7698435 70.31912977 -30.26298639 72.5723135 -35.875 74.8125 C-37.3290625 75.493125 -37.3290625 75.493125 -38.8125 76.1875 C-39.1425 77.1775 -39.4725 78.1675 -39.8125 79.1875 C-39.13703125 79.29707031 -38.4615625 79.40664062 -37.765625 79.51953125 C-36.42757812 79.75736328 -36.42757812 79.75736328 -35.0625 80 C-34.18078125 80.15082031 -33.2990625 80.30164063 -32.390625 80.45703125 C-29.56618844 81.25728827 -27.95480028 82.19477474 -25.8125 84.1875 C-24.76017484 87.34447548 -24.60488896 89.87160445 -24.4375 93.1875 C-24.13525447 97.71110806 -23.50843831 101.72742063 -22.1875 106.0625 C-20.81344934 110.5962034 -20.69120205 113.60037202 -21.8125 118.1875 C-26.84698001 119.36454278 -30.57534266 119.81285782 -35.125 117.0625 C-41.59467805 112.33515109 -43.56397952 107.53264923 -45.6875 99.9296875 C-46.98725799 96.7615274 -47.81663377 95.7955376 -50.8125 94.1875 C-54.12632163 93.29388518 -57.44582941 92.67399337 -60.81640625 92.03125 C-63.79731238 91.19177709 -65.08689816 90.72624515 -66.8125 88.1875 C-66.58919287 84.54015021 -66.42877165 82.80377165 -63.8125 80.1875 C-64.09980055 77.84805264 -64.43186779 75.5135857 -64.8125 73.1875 C-64.3175 72.6925 -64.3175 72.6925 -63.8125 72.1875 C-63.415007 69.84026034 -63.06881277 67.48421452 -62.75 65.125 C-62.57339844 63.83464844 -62.39679688 62.54429688 -62.21484375 61.21484375 C-62.08207031 60.21582031 -61.94929688 59.21679688 -61.8125 58.1875 C-62.9571875 58.001875 -62.9571875 58.001875 -64.125 57.8125 C-66.8125 57.1875 -66.8125 57.1875 -69.8125 55.1875 C-69.28125322 50.05740049 -67.50716245 46.05871317 -65 41.625 C-64.61054199 40.9333374 -64.22108398 40.2416748 -63.81982422 39.52905273 C-59.62416989 32.39709416 -52.93798998 21.89599666 -44.8125 19.1875 C-44.8125 18.5275 -44.8125 17.8675 -44.8125 17.1875 C-42.69604867 15.64714241 -40.61484503 14.27901592 -38.375 12.9375 C-37.37629883 12.33796509 -37.37629883 12.33796509 -36.35742188 11.72631836 C-28.90648999 7.42404513 -21.01360738 4.68951496 -12.8125 2.1875 C-11.01232422 1.61902344 -11.01232422 1.61902344 -9.17578125 1.0390625 C-5.96333515 0.22569055 -3.29986368 -0.05076713 0 0 Z " fill="#1776C5" transform="translate(186.8125,52.8125)"/>
<path d="M0 0 C19.975714 -0.88824815 19.975714 -0.88824815 29.16796875 3.75390625 C34.193131 5.96497764 39.58001619 6.41429207 45 7 C46.18956883 11.15226856 45.78960563 13.38725993 44.0625 17.3125 C43.49208984 18.63701172 43.49208984 18.63701172 42.91015625 19.98828125 C42.60980469 20.65214844 42.30945313 21.31601563 42 22 C43.98 22.66 45.96 23.32 48 24 C48 24.66 48 25.32 48 26 C49.32 26 50.64 26 52 26 C53.76317943 28.75496785 53.99739517 30.1458707 53.9375 33.5 C54.00769427 37.43087893 54.72665257 38.03476423 57 41 C56.9375 43.5625 56.9375 43.5625 56 46 C52.07999393 49.71033133 47.94263094 49.7620611 42.77734375 50.375 C39.68165078 51.07163977 38.76859066 51.40679039 37 54 C36.16143131 56.26775719 35.39837903 58.56403242 34.6875 60.875 C32.70619025 66.68684193 31.33833582 69.91562819 26 73 C25.34 73 24.68 73 24 73 C24 73.66 24 74.32 24 75 C22.40012764 75.27615058 20.794667 75.52007625 19.1875 75.75 C17.84751953 75.95882812 17.84751953 75.95882812 16.48046875 76.171875 C14 76 14 76 12.1953125 74.203125 C10.60434258 71.27074907 10.65676978 69.29501009 11 66 C11.48726562 65.06136108 11.48726562 65.06136108 11.984375 64.10375977 C13.12465489 61.74179058 13.36454088 59.94674429 13.5625 57.33984375 C13.63726562 56.46392578 13.71203125 55.58800781 13.7890625 54.68554688 C13.92998559 52.84963223 14.07060933 51.01369459 14.2109375 49.17773438 C14.28570312 48.30310547 14.36046875 47.42847656 14.4375 46.52734375 C14.49808594 45.73062256 14.55867188 44.93390137 14.62109375 44.11303711 C15 42 15 42 17 39 C19.6015625 37.83203125 19.6015625 37.83203125 22.625 36.8125 C23.62789062 36.46832031 24.63078125 36.12414062 25.6640625 35.76953125 C26.43492188 35.51558594 27.20578125 35.26164062 28 35 C25.3655958 32.13859498 23.17022106 30.38183893 19.5625 28.9375 C16.19222384 27.51931449 12.99895034 26.12828734 10 24 C10 23.34 10 22.68 10 22 C9.34 22 8.68 22 8 22 C4.15638566 16.31145078 5.04657201 11.45574131 6 5 C5.01 4.360625 4.02 3.72125 3 3.0625 C2.01 2.381875 1.02 1.70125 0 1 C0 0.67 0 0.34 0 0 Z " fill="#D1E310" transform="translate(48,96)"/>
<path d="M0 0 C-0.02822456 6.22351446 -1.03928735 9.92356032 -5.33203125 14.4921875 C-7 16 -7 16 -9.20703125 17.3046875 C-11.32522352 18.92116891 -11.32522352 18.92116891 -11.1796875 21.890625 C-11.02886719 23.55351563 -11.02886719 23.55351563 -10.875 25.25 C-10.67861239 32.61453555 -10.67861239 32.61453555 -13.375 36 C-18.32640943 40.7290057 -24.79931322 43.12488018 -31.0625 45.625 C-32.5165625 46.305625 -32.5165625 46.305625 -34 47 C-34.33 47.99 -34.66 48.98 -35 50 C-34.32453125 50.10957031 -33.6490625 50.21914062 -32.953125 50.33203125 C-32.06109375 50.49058594 -31.1690625 50.64914063 -30.25 50.8125 C-29.36828125 50.96332031 -28.4865625 51.11414063 -27.578125 51.26953125 C-24.75368844 52.06978827 -23.14230028 53.00727474 -21 55 C-19.94767484 58.15697548 -19.79238896 60.68410445 -19.625 64 C-19.32275447 68.52360806 -18.69593831 72.53992063 -17.375 76.875 C-16.00094934 81.4087034 -15.87870205 84.41287202 -17 89 C-22.03448001 90.17704278 -25.76284266 90.62535782 -30.3125 87.875 C-36.78217805 83.14765109 -38.75147952 78.34514923 -40.875 70.7421875 C-42.17475799 67.5740274 -43.00413377 66.6080376 -46 65 C-49.31382163 64.10638518 -52.63332941 63.48649337 -56.00390625 62.84375 C-58.98481238 62.00427709 -60.27439816 61.53874515 -62 59 C-61.77669287 55.35265021 -61.61627165 53.61627165 -59 51 C-59.32326553 47.40320934 -59.32326553 47.40320934 -60 44 C-58.515 43.505 -58.515 43.505 -57 43 C-56.40251953 43.86625 -56.40251953 43.86625 -55.79296875 44.75 C-55.26316406 45.4925 -54.73335938 46.235 -54.1875 47 C-53.66542969 47.7425 -53.14335937 48.485 -52.60546875 49.25 C-51.81076172 50.11625 -51.81076172 50.11625 -51 51 C-50.01 51 -49.02 51 -48 51 C-48.16749756 50.27981689 -48.33499512 49.55963379 -48.50756836 48.81762695 C-48.99063528 46.05358366 -49.03317696 43.71198266 -48.87890625 40.91796875 C-48.83056641 39.98662109 -48.78222656 39.05527344 -48.73242188 38.09570312 C-48.64831055 36.65614258 -48.64831055 36.65614258 -48.5625 35.1875 C-48.51029297 34.20845703 -48.45808594 33.22941406 -48.40429688 32.22070312 C-48.27512661 29.8134391 -48.14018357 27.40664362 -48 25 C-47.34 24.67 -46.68 24.34 -46 24 C-44.0546875 24.77734375 -44.0546875 24.77734375 -41.875 25.9375 C-41.15054688 26.31777344 -40.42609375 26.69804688 -39.6796875 27.08984375 C-39.12539062 27.39019531 -38.57109375 27.69054687 -38 28 C-38 28.66 -38 29.32 -38 30 C-36.35 30 -34.7 30 -33 30 C-33.04125 29.236875 -33.0825 28.47375 -33.125 27.6875 C-33 25 -33 25 -31 22 C-30.33841957 19.95415921 -30.33841957 19.95415921 -29.875 17.8125 C-29.441875 15.9253125 -29.441875 15.9253125 -29 14 C-28.34 14 -27.68 14 -27 14 C-26.95875 13.38125 -26.9175 12.7625 -26.875 12.125 C-26.441875 11.073125 -26.441875 11.073125 -26 10 C-23 8.875 -23 8.875 -20 8 C-19.67 7.34 -19.34 6.68 -19 6 C-17.02091029 5.7691062 -15.04125324 5.54166253 -13.05859375 5.34375 C-10.24417344 4.87378987 -8.34480972 3.58433089 -6 2 C-1.36842105 0 -1.36842105 0 0 0 Z " fill="#294092" transform="translate(182,82)"/>
<path d="M0 0 C-0.61530944 3.66656996 -2.21242149 5.87502629 -4.4375 8.8125 C-9.25925529 15.55704114 -10.3031047 21.91234668 -11 30 C-11.99 30 -12.98 30 -14 30 C-15.39106407 30.4303097 -16.76640868 30.91361516 -18.125 31.4375 C-18.82882813 31.70433594 -19.53265625 31.97117188 -20.2578125 32.24609375 C-21.99259877 32.86988975 -21.99259877 32.86988975 -23 34 C-25.67058851 34.14115161 -28.32432238 34.04247107 -31 34 C-31.33 34.99 -31.66 35.98 -32 37 C-34.97 37.495 -34.97 37.495 -38 38 C-38.33 39.32 -38.66 40.64 -39 42 C-39.66 42 -40.32 42 -41 42 C-41.12117188 42.65226562 -41.24234375 43.30453125 -41.3671875 43.9765625 C-42.28943989 48.78646342 -43.30167277 53.39025465 -45 58 C-46.65 58 -48.3 58 -50 58 C-50 57.34 -50 56.68 -50 56 C-50.928125 55.690625 -51.85625 55.38125 -52.8125 55.0625 C-54.875 54.375 -56.9375 53.6875 -59 53 C-59.33 61.58 -59.66 70.16 -60 79 C-61.485 79.495 -61.485 79.495 -63 80 C-64.83928131 78.16071869 -64.17913207 75.64861765 -64.23046875 73.203125 C-64 71 -64 71 -63.00390625 68.67578125 C-61.75181784 65.33850281 -61.79562818 62.49269537 -61.75 58.9375 C-61.33816964 52.35507813 -61.33816964 52.35507813 -58.5 49.375 C-57.345 48.92125 -56.19 48.4675 -55 48 C-53.49601854 47.36349356 -51.99620041 46.71708768 -50.5 46.0625 C-49.3553125 45.5675 -49.3553125 45.5675 -48.1875 45.0625 C-44.84558935 43.43928626 -42.60409727 41.6691997 -40 39 C-38.41167956 33.74481632 -38.69291724 27.95739144 -38.5703125 22.50585938 C-38.39205608 18.03088055 -38.17806954 15.39808974 -35 12 C-34.67 11.01 -34.34 10.02 -34 9 C-33.236875 8.87625 -32.47375 8.7525 -31.6875 8.625 C-28.79732864 8.11897208 -28.79732864 8.11897208 -26 6 C-26 5.01 -26 4.02 -26 3 C-7.31104921 -3.65552461 -7.31104921 -3.65552461 0 0 Z " fill="#1E60B3" transform="translate(194,54)"/>
<path d="M0 0 C2.38564077 0.57584432 4.66682784 1.22227595 7 2 C7 2.66 7 3.32 7 4 C8.32 4 9.64 4 11 4 C12.76317943 6.75496785 12.99739517 8.1458707 12.9375 11.5 C13.00769427 15.43087893 13.72665257 16.03476423 16 19 C15.9375 21.5625 15.9375 21.5625 15 24 C11.07999393 27.71033133 6.94263094 27.7620611 1.77734375 28.375 C-1.31834922 29.07163977 -2.23140934 29.40679039 -4 32 C-4.83856869 34.26775719 -5.60162097 36.56403242 -6.3125 38.875 C-8.29380975 44.68684193 -9.66166418 47.91562819 -15 51 C-15.66 51 -16.32 51 -17 51 C-17 51.66 -17 52.32 -17 53 C-18.59987236 53.27615058 -20.205333 53.52007625 -21.8125 53.75 C-22.70582031 53.88921875 -23.59914063 54.0284375 -24.51953125 54.171875 C-27 54 -27 54 -28.8046875 52.203125 C-30.39565742 49.27074907 -30.34323022 47.29501009 -30 44 C-29.68675781 43.42765625 -29.37351563 42.8553125 -29.05078125 42.265625 C-27.60656708 39.15170598 -27.31518674 36.14572626 -26.875 32.75 C-26.70742188 31.48671875 -26.53984375 30.2234375 -26.3671875 28.921875 C-26.24601562 27.95765625 -26.12484375 26.9934375 -26 26 C-25.34 26 -24.68 26 -24 26 C-23.67 24.35 -23.34 22.7 -23 21 C-22.34 21 -21.68 21 -21 21 C-21 21.66 -21 22.32 -21 23 C-19.35 23 -17.7 23 -16 23 C-16 23.99 -16 24.98 -16 26 C-14.68 26 -13.36 26 -12 26 C-11.79375 25.236875 -11.5875 24.47375 -11.375 23.6875 C-9.80380653 19.4738448 -7.72137826 15.75454934 -5.53125 11.8359375 C-3.45308284 7.98708709 -1.69195655 4.03083765 0 0 Z " fill="#F58416" transform="translate(89,118)"/>
<path d="M0 0 C0.66 0 1.32 0 2 0 C2.91534299 1.30596707 3.78313974 2.64549858 4.625 4 C6.76124674 7.0455814 6.76124674 7.0455814 9.99609375 8.6015625 C13.09358271 8.6366947 15.62986018 8.17083376 18.4375 6.875 C23.53468677 5.1344972 29.05968793 7.5318184 33.9375 9.375 C37.27790588 11.14746026 37.75020763 11.59519182 39 15 C39.21828443 17.01429557 39.35632474 19.03803827 39.4375 21.0625 C39.70613738 25.5786492 40.30284868 29.54959094 41.625 33.875 C42.99905066 38.4087034 43.12129795 41.41287202 42 46 C36.96551999 47.17704278 33.23715734 47.62535782 28.6875 44.875 C22.21782195 40.14765109 20.24852048 35.34514923 18.125 27.7421875 C16.82524201 24.5740274 15.99586623 23.6080376 13 22 C9.68617837 21.10638518 6.36667059 20.48649337 2.99609375 19.84375 C0.01518762 19.00427709 -1.27439816 18.53874515 -3 16 C-2.77669287 12.35265021 -2.61627165 10.61627165 0 8 C-0.28730055 5.66055264 -0.61936779 3.3260857 -1 1 C-0.67 0.67 -0.34 0.34 0 0 Z " fill="#C71080" transform="translate(123,125)"/>
<path d="M0 0 C4.63618262 0.63669046 8.54789513 2.48560333 12.6875 4.5625 C13.39430908 4.91675049 14.10111816 5.27100098 14.8293457 5.63598633 C20.83605771 8.74181904 25.99399547 12.44184876 31 17 C31.86625 17.763125 32.7325 18.52625 33.625 19.3125 C41.88488185 28.6592084 49.39392302 38.27238349 50 51 C47.69 51.66 45.38 52.32 43 53 C43.495 58.445 43.495 58.445 44 64 C42.35 64 40.7 64 39 64 C39 63.34 39 62.68 39 62 C38.38125 61.855625 37.7625 61.71125 37.125 61.5625 C35 61 35 61 33 60 C33.2165625 59.32453125 33.433125 58.6490625 33.65625 57.953125 C33.9346875 57.06109375 34.213125 56.1690625 34.5 55.25 C34.7784375 54.36828125 35.056875 53.4865625 35.34375 52.578125 C36.16445285 49.79732471 36.16445285 49.79732471 36 46 C31.71 45.34 27.42 44.68 23 44 C22.731875 42.185 22.46375 40.37 22.1875 38.5 C21.44664843 34.02336499 20.4492058 30.04908139 18.72265625 25.8671875 C17.95697207 23.88882514 17.43162835 21.93711046 16.9375 19.875 C16.1209679 16.50000066 15.14610009 13.27457168 14 10 C13.01 10 12.02 10 11 10 C9.78663526 8.52428613 8.57695438 7.04493659 7.40625 5.53515625 C5.31023343 3.24700482 2.82667183 2.18325797 0 1 C0 0.67 0 0.34 0 0 Z " fill="#57BE38" transform="translate(57,58)"/>
<path d="M0 0 C-0.4859793 7.3620694 -0.97674072 14.69100518 -2 22 C-2.66 22 -3.32 22 -4 22 C-4.33 24.31 -4.66 26.62 -5 29 C-4.34 29.33 -3.68 29.66 -3 30 C-5.0600371 30.25034126 -7.12327466 30.47443346 -9.1875 30.6875 C-10.91033203 30.87892578 -10.91033203 30.87892578 -12.66796875 31.07421875 C-16.46718654 30.98959373 -18.08036759 30.39640079 -21 28 C-24.78070616 21.0022566 -25.05012905 11.75541696 -26 4 C-25.01 4.495 -25.01 4.495 -24 5 C-23.67 5.99 -23.34 6.98 -23 8 C-22.278125 7.67 -21.55625 7.34 -20.8125 7 C-17.98302573 5.99396471 -15.97104534 5.83022598 -13 6 C-13 5.34 -13 4.68 -13 4 C-11.58774074 3.32404685 -10.16997095 2.65959941 -8.75 2 C-7.56664062 1.443125 -7.56664062 1.443125 -6.359375 0.875 C-4 0 -4 0 0 0 Z " fill="#B1DA18" transform="translate(66,66)"/>
<path d="M0 0 C0.94833208 3.42288611 1 6.44980741 1 10 C1.33 10.66 1.66 11.32 2 12 C1.96242212 14.5206086 1.85884044 16.98857169 1.6875 19.5 C1.65205078 20.18964844 1.61660156 20.87929687 1.58007812 21.58984375 C1.24262741 26.75737259 1.24262741 26.75737259 -1 29 C-1.25239045 31.26290982 -1.40471427 33.53755331 -1.5 35.8125 C-1.69288891 40.3887894 -2.15794156 43.81609982 -4 48 C-4.3813074 50.32597511 -4.72460254 52.65912158 -5 55 C-10.91756021 49.2341721 -10.91756021 49.2341721 -11.1328125 46.01171875 C-11.11892562 41.8803713 -11.03989637 38.02959842 -10 34 C-11.1446875 33.814375 -11.1446875 33.814375 -12.3125 33.625 C-15 33 -15 33 -18 31 C-17.47249278 25.61607709 -15.58380814 21.78882237 -12.9375 17.1875 C-12.53990479 16.48625 -12.14230957 15.785 -11.73266602 15.0625 C-8.45019938 9.43504284 -4.66029391 4.57140547 0 0 Z " fill="#148FBC" transform="translate(135,77)"/>
<path d="M0 0 C3.34455866 1.77466378 3.80988325 2.21671722 5.0625 5.625 C5.30458983 7.68001254 5.46372513 9.74563582 5.5625 11.8125 C5.85553619 16.64217046 6.45322251 21.0672358 7.7578125 25.72265625 C8.11522142 27.95417093 7.7384519 29.48765912 7.0625 31.625 C6.7325 30.635 6.4025 29.645 6.0625 28.625 C5.4025 28.295 4.7425 27.965 4.0625 27.625 C4.0625 26.965 4.0625 26.305 4.0625 25.625 C3.0725 25.625 2.0825 25.625 1.0625 25.625 C1.0625 24.965 1.0625 24.305 1.0625 23.625 C0.134375 23.1609375 0.134375 23.1609375 -0.8125 22.6875 C-2.1875 22 -3.5625 21.3125 -4.9375 20.625 C-4.9375 19.635 -4.9375 18.645 -4.9375 17.625 C-5.700625 17.686875 -6.46375 17.74875 -7.25 17.8125 C-9.9375 17.625 -9.9375 17.625 -11.6875 16.4375 C-13.22588998 14.20683452 -13.57755447 12.2885969 -13.9375 9.625 C-15.2575 9.625 -16.5775 9.625 -17.9375 9.625 C-17.9375 8.635 -17.9375 7.645 -17.9375 6.625 C-18.9275 6.625 -19.9175 6.625 -20.9375 6.625 C-20.9375 5.965 -20.9375 5.305 -20.9375 4.625 C-21.576875 4.356875 -22.21625 4.08875 -22.875 3.8125 C-24.9375 2.625 -24.9375 2.625 -25.9375 -0.375 C-24.720625 -0.49875 -23.50375 -0.6225 -22.25 -0.75 C-19.60326551 -1.0600196 -17.92279249 -1.3821652 -15.5 -2.5625 C-10.37092338 -4.18879259 -4.88290037 -1.84510432 0 0 Z " fill="#841C83" transform="translate(156.9375,134.375)"/>
<path d="M0 0 C5.94 0 11.88 0 18 0 C18.33 0.99 18.66 1.98 19 3 C19.68707031 3.13277344 20.37414062 3.26554687 21.08203125 3.40234375 C21.98308594 3.57894531 22.88414063 3.75554687 23.8125 3.9375 C25.15248047 4.19853516 25.15248047 4.19853516 26.51953125 4.46484375 C29 5 29 5 32 6 C30.9189064 10.98966277 30.07632321 13.93693161 27 18 C25.72945321 20.40506074 24.50210611 22.80621626 23.3125 25.25 C22.99216797 25.8996875 22.67183594 26.549375 22.34179688 27.21875 C21.55752859 28.81069757 20.77825745 30.40510529 20 32 C18.68 32 17.36 32 16 32 C16 31.01 16 30.02 16 29 C14.35 29 12.7 29 11 29 C11 28.34 11 27.68 11 27 C10.34 27.33 9.68 27.66 9 28 C8.34786708 30.02463255 8.34786708 30.02463255 8 32 C7.34 32 6.68 32 6 32 C5.75 26.375 5.75 26.375 8 23 C10.6015625 21.83203125 10.6015625 21.83203125 13.625 20.8125 C14.62789062 20.46832031 15.63078125 20.12414062 16.6640625 19.76953125 C17.43492188 19.51558594 18.20578125 19.26164062 19 19 C13.25253064 12.88509725 13.25253064 12.88509725 6 9 C6 8.34 6 7.68 6 7 C5.01 7 4.02 7 3 7 C3 6.34 3 5.68 3 5 C2.34 5 1.68 5 1 5 C0.67 3.35 0.34 1.7 0 0 Z " fill="#F6D408" transform="translate(57,112)"/>
<path d="M0 0 C1.8125 1.125 1.8125 1.125 3 3 C3.62591567 8.42460248 2.60804479 12.23357331 0 17 C-4.20512821 21 -4.20512821 21 -7 21 C-7 21.66 -7 22.32 -7 23 C-8.59987236 23.27615058 -10.205333 23.52007625 -11.8125 23.75 C-12.70582031 23.88921875 -13.59914063 24.0284375 -14.51953125 24.171875 C-17 24 -17 24 -18.8046875 22.203125 C-20.39565742 19.27074907 -20.34323022 17.29501009 -20 14 C-19.125 12.0625 -19.125 12.0625 -18 10 C-17.5978125 8.205625 -17.5978125 8.205625 -17.1875 6.375 C-16 3 -16 3 -13.75 1.6875 C-12.8425 1.460625 -11.935 1.23375 -11 1 C-9.515 0.4121875 -9.515 0.4121875 -8 -0.1875 C-4.76078267 -1.06478803 -3.14412135 -1.10469128 0 0 Z " fill="#E7582C" transform="translate(79,148)"/>
<path d="M0 0 C9.49378254 -0.62596368 17.01743708 1.02352945 26 4 C22.25 5.125 22.25 5.125 20 4 C20 4.66 20 5.32 20 6 C22.97 6.495 22.97 6.495 26 7 C26.33 8.65 26.66 10.3 27 12 C28.98 12 30.96 12 33 12 C29.24532309 15.05936637 25.91886939 17 21 17 C21 17.66 21 18.32 21 19 C17.68885166 20.12880057 14.41021743 21.21302675 11 22 C7 15.25 7 15.25 7 13 C6.34 13 5.68 13 5 13 C3.60699818 11.04109119 2.27754554 9.0360882 1 7 C0.34 6.01 -0.32 5.02 -1 4 C-0.625 1.8125 -0.625 1.8125 0 0 Z " fill="#9FD326" transform="translate(32,53)"/>
<path d="M0 0 C4.95 0 9.9 0 15 0 C15 0.99 15 1.98 15 3 C15.99 3 16.98 3 18 3 C19.04005702 6.38018531 19.08004482 9.4780279 19 13 C20.65 13.66 22.3 14.32 24 15 C24 15.33 24 15.66 24 16 C19.05 16 14.1 16 9 16 C9.33 17.65 9.66 19.3 10 21 C10.66 21 11.32 21 12 21 C12 21.66 12 22.32 12 23 C12.99 23 13.98 23 15 23 C15 23.66 15 24.32 15 25 C15.5775 25.0825 16.155 25.165 16.75 25.25 C19.6159304 26.20531013 20.9990764 27.78469173 23 30 C17.91353417 28.7792482 14.20353067 27.28080442 10 24 C10 23.34 10 22.68 10 22 C9.34 22 8.68 22 8 22 C4.15638566 16.31145078 5.04657201 11.45574131 6 5 C5.01 4.360625 4.02 3.72125 3 3.0625 C2.01 2.381875 1.02 1.70125 0 1 C0 0.67 0 0.34 0 0 Z " fill="#E1E80D" transform="translate(48,96)"/>
<path d="M0 0 C4 1 4 1 7 2 C7 2.66 7 3.32 7 4 C8.32 4 9.64 4 11 4 C12.76317943 6.75496785 12.99739517 8.1458707 12.9375 11.5 C13.00769427 15.43087893 13.72665257 16.03476423 16 19 C15.92325201 22.14666775 15.46103154 23.50481797 13.3125 25.8125 C10.39975854 27.3082321 8.23000416 27.22022756 5 27 C5 24.03 5 21.06 5 18 C4.34 18 3.68 18 3 18 C2.01 12.06 1.02 6.12 0 0 Z " fill="#E8541E" transform="translate(89,118)"/>
<path d="M0 0 C1.8125 1.125 1.8125 1.125 3 3 C3.1875 6.6875 3.1875 6.6875 3 10 C2.67 10 2.34 10 2 10 C1.67 7.36 1.34 4.72 1 2 C-0.32 2 -1.64 2 -3 2 C-3.309375 3.27875 -3.61875 4.5575 -3.9375 5.875 C-5.30769231 11.53846154 -5.30769231 11.53846154 -8.25 13.5 C-10.78927595 14.88505961 -13.2916194 15.99403006 -16 17 C-16 17.99 -16 18.98 -16 20 C-16.66 20 -17.32 20 -18 20 C-18.41571542 8.52163525 -18.41571542 8.52163525 -16 3 C-13.75 1.6875 -13.75 1.6875 -11 1 C-9.515 0.4121875 -9.515 0.4121875 -8 -0.1875 C-4.76078267 -1.06478803 -3.14412135 -1.10469128 0 0 Z " fill="#F15E1F" transform="translate(79,148)"/>
<path d="M0 0 C2.97 1.32 5.94 2.64 9 4 C9 4.66 9 5.32 9 6 C10.32 6 11.64 6 13 6 C12.33333333 7.33333333 11.66666667 8.66666667 11 10 C10.690625 10.70125 10.38125 11.4025 10.0625 12.125 C9 14 9 14 6 16 C4.93753473 17.96752828 3.92862192 19.96587579 3 22 C2.34 22 1.68 22 1 22 C1 22.99 1 23.98 1 25 C0.01 25 -0.98 25 -2 25 C-1.86185777 21.0205267 -1.71320326 17.04151585 -1.5625 13.0625 C-1.52318359 11.92619141 -1.48386719 10.78988281 -1.44335938 9.61914062 C-1.40146484 8.53955078 -1.35957031 7.45996094 -1.31640625 6.34765625 C-1.27974854 5.34742432 -1.24309082 4.34719238 -1.20532227 3.31665039 C-1 1 -1 1 0 0 Z " fill="#2A449D" transform="translate(135,106)"/>
<path d="M0 0 C4.62 0.66 9.24 1.32 14 2 C14 3.32 14 4.64 14 6 C11.69 6.66 9.38 7.32 7 8 C7.33 11.63 7.66 15.26 8 19 C6.35 19 4.7 19 3 19 C3 18.34 3 17.68 3 17 C2.071875 16.7834375 2.071875 16.7834375 1.125 16.5625 C-1 16 -1 16 -3 15 C-2.7834375 14.33613281 -2.566875 13.67226562 -2.34375 12.98828125 C-2.0653125 12.10527344 -1.786875 11.22226563 -1.5 10.3125 C-1.2215625 9.44238281 -0.943125 8.57226562 -0.65625 7.67578125 C0.19849691 4.64983258 0.19849691 4.64983258 0 0 Z " fill="#77C536" transform="translate(93,103)"/>
<path d="M0 0 C0.75 1.625 0.75 1.625 1 4 C0.06270522 5.43941699 -0.88105253 6.87523476 -1.86425781 8.28369141 C-3.77389201 11.16948857 -5.2384855 14.26763758 -6.75 17.375 C-7.06582031 18.01566406 -7.38164063 18.65632813 -7.70703125 19.31640625 C-8.47507866 20.87577523 -9.23807685 22.4376295 -10 24 C-11.32 24 -12.64 24 -14 24 C-14 23.01 -14 22.02 -14 21 C-15.65 21 -17.3 21 -19 21 C-19 20.34 -19 19.68 -19 19 C-19.66 19.33 -20.32 19.66 -21 20 C-21.65213292 22.02463255 -21.65213292 22.02463255 -22 24 C-22.66 24 -23.32 24 -24 24 C-24.25 18.375 -24.25 18.375 -22 15 C-18.68047948 14.09586744 -15.35615229 13.53719935 -11.96875 12.94140625 C-8.88782779 12.30392555 -8.88782779 12.30392555 -7.59375 9.90234375 C-7.3978125 9.27457031 -7.201875 8.64679688 -7 8 C-6.01 8 -5.02 8 -4 8 C-3.896875 7.4225 -3.79375 6.845 -3.6875 6.25 C-2.90207202 3.67950842 -1.69495803 2.06342716 0 0 Z " fill="#F4BC0D" transform="translate(87,120)"/>
<path d="M0 0 C1.32 0.33 2.64 0.66 4 1 C4 1.99 4 2.98 4 4 C7.3 4.66 10.6 5.32 14 6 C13.67 8.31 13.34 10.62 13 13 C9.05289393 13.92281878 5.56151501 14.64660673 1.7265625 13.05859375 C-1.5571727 11.01388875 -4.32233801 8.79265361 -7 6 C-6.67 5.01 -6.34 4.02 -6 3 C-5.67 3.99 -5.34 4.98 -5 6 C-4.01 6 -3.02 6 -2 6 C-2 5.34 -2 4.68 -2 4 C-1.34 4 -0.68 4 0 4 C0 2.68 0 1.36 0 0 Z " fill="#BD207B" transform="translate(152,158)"/>
<path d="M0 0 C1.43931117 0.45261358 2.87638999 0.91232979 4.3125 1.375 C5.11300781 1.63023438 5.91351563 1.88546875 6.73828125 2.1484375 C9 3 9 3 12 5 C12 5.66 12 6.32 12 7 C13.32 7.66 14.64 8.32 16 9 C16 9.66 16 10.32 16 11 C16.99 11 17.98 11 19 11 C22.61403692 17.48034207 24.39161585 23.78119349 26 31 C26.21914062 31.89074219 26.43828125 32.78148437 26.6640625 33.69921875 C28.12540717 39.74918567 28.12540717 39.74918567 27 42 C25.55845173 37.72730289 24.19492644 33.43675971 22.875 29.125 C22.52179688 27.97257812 22.16859375 26.82015625 21.8046875 25.6328125 C21.53914063 24.76398438 21.27359375 23.89515625 21 23 C20.34 23 19.68 23 19 23 C18.505 20.525 18.505 20.525 18 18 C17.67 19.65 17.34 21.3 17 23 C16.01 23 15.02 23 14 23 C13.67 18.38 13.34 13.76 13 9 C11.02 9 9.04 9 7 9 C6.4465236 6.92446352 6 5.15634036 6 3 C3.03 2.505 3.03 2.505 0 2 C0 1.34 0 0.68 0 0 Z " fill="#85CE2B" transform="translate(52,57)"/>
<path d="M0 0 C1.32 0 2.64 0 4 0 C4.33 0.99 4.66 1.98 5 3 C5.33 2.67 5.66 2.34 6 2 C7.66617115 1.95936168 9.33388095 1.957279 11 2 C11.17151487 7.05968873 11.03461345 10.33235737 9 15 C8.6186926 17.32597511 8.27539746 19.65912158 8 22 C2.08243979 16.2341721 2.08243979 16.2341721 1.8671875 13.01171875 C1.88107438 8.8803713 1.96010363 5.02959842 3 1 C2.01 0.67 1.02 0.34 0 0 Z " fill="#237D9E" transform="translate(122,110)"/>
<path d="M0 0 C0 3.34238213 -0.48151073 5.03533048 -2 8 C-5.17449034 11.0886933 -7.59124045 12.49614177 -12 13 C-11.34 13 -10.68 13 -10 13 C-10.33 13.99 -10.66 14.98 -11 16 C-11.66 16 -12.32 16 -13 16 C-13.33 18.97 -13.66 21.94 -14 25 C-15.32 24.67 -16.64 24.34 -18 24 C-18.44811859 15.18700114 -18.44811859 15.18700114 -15 11 C-12.8125 9.6875 -12.8125 9.6875 -11 9 C-11 8.34 -11 7.68 -11 7 C-9.21601386 5.71993203 -7.37146094 4.52339649 -5.5 3.375 C-4.4790625 2.74335937 -3.458125 2.11171875 -2.40625 1.4609375 C-1.6121875 0.97882812 -0.818125 0.49671875 0 0 Z " fill="#2789C9" transform="translate(153,63)"/>
<path d="M0 0 C0.99 0.66 1.98 1.32 3 2 C3 3.32 3 4.64 3 6 C4.32 6.66 5.64 7.32 7 8 C6.401875 8.433125 5.80375 8.86625 5.1875 9.3125 C3.04312569 10.87055543 3.04312569 10.87055543 1.609375 12.5 C-0.17998035 14.16774867 -1.64805438 14.85697174 -3.9375 15.6875 C-4.94103516 16.06455078 -4.94103516 16.06455078 -5.96484375 16.44921875 C-8 17 -8 17 -12 17 C-12 15 -12 15 -10.3125 13.25 C-9.549375 12.5075 -8.78625 11.765 -8 11 C-7.11630939 9.92374398 -6.24147473 8.84016405 -5.375 7.75 C-4.59125 6.8425 -3.8075 5.935 -3 5 C-2.34 5 -1.68 5 -1 5 C-0.67 3.35 -0.34 1.7 0 0 Z " fill="#353384" transform="translate(147,117)"/>
<path d="M0 0 C1.9375 0.375 1.9375 0.375 4 1 C5.21977329 3.43954658 5.20153813 5.15305849 5.25 7.875 C5.28867188 9.17050781 5.28867188 9.17050781 5.328125 10.4921875 C4.93490079 13.49754394 4.09666029 14.83875065 2 17 C-0.625 17.3125 -0.625 17.3125 -3 17 C-3.33 16.67 -3.66 16.34 -4 16 C-3.52901824 10.34821884 -1.91717519 5.31744817 0 0 Z " fill="#ED5023" transform="translate(76,149)"/>
<path d="M0 0 C4.29 0.33 8.58 0.66 13 1 C14.00955301 6.04776504 13.99294585 6.92512307 12.0625 11.3125 C11.68222656 12.19550781 11.30195312 13.07851562 10.91015625 13.98828125 C10.60980469 14.65214844 10.30945313 15.31601563 10 16 C9.34 16 8.68 16 8 16 C7.73445313 15.38511719 7.46890625 14.77023438 7.1953125 14.13671875 C6.84210938 13.32847656 6.48890625 12.52023438 6.125 11.6875 C5.77695313 10.88699219 5.42890625 10.08648437 5.0703125 9.26171875 C3.97428106 6.8038166 3.97428106 6.8038166 2 4 C2 3.01 2 2.02 2 1 C1.34 0.67 0.68 0.34 0 0 Z " fill="#A6D81F" transform="translate(80,102)"/>
<path d="M0 0 C2.31 0 4.62 0 7 0 C7.33 1.65 7.66 3.3 8 5 C9.98 5 11.96 5 14 5 C10.24532309 8.05936637 6.91886939 10 2 10 C2 10.66 2 11.32 2 12 C0.35 12 -1.3 12 -3 12 C-4.125 5.25 -4.125 5.25 -3 3 C-2.01 3 -1.02 3 0 3 C0 2.01 0 1.02 0 0 Z " fill="#97D21E" transform="translate(51,60)"/>
<path d="M0 0 C5.75 -0.125 5.75 -0.125 8 1 C7.38469056 4.66656996 5.78757851 6.87502629 3.5625 9.8125 C-1.25925529 16.55704114 -2.3031047 22.91234668 -3 31 C-5.74808262 28.25191738 -5.3636712 26.52225466 -5.4375 22.6875 C-5.38258608 16.44790565 -5.38258608 16.44790565 -2.4375 13 C-1.633125 12.34 -0.82875 11.68 0 11 C-0.00156224 8.40882687 -0.00156224 8.40882687 -1 6 C-1.185625 5.236875 -1.37125 4.47375 -1.5625 3.6875 C-1.706875 3.130625 -1.85125 2.57375 -2 2 C-1.34 2 -0.68 2 0 2 C0 1.34 0 0.68 0 0 Z " fill="#1E5CAA" transform="translate(186,53)"/>
<path d="M0 0 C4.80009391 0.63626976 8.66977744 2.59434441 12.9375 4.75 C13.62779297 5.08515625 14.31808594 5.4203125 15.02929688 5.765625 C26.10248981 11.30746943 26.10248981 11.30746943 28 17 C23.71 16.01 19.42 15.02 15 14 C14.67 12.68 14.34 11.36 14 10 C13.01 10 12.02 10 11 10 C9.78663526 8.52428613 8.57695438 7.04493659 7.40625 5.53515625 C5.31023343 3.24700482 2.82667183 2.18325797 0 1 C0 0.67 0 0.34 0 0 Z " fill="#5BBA40" transform="translate(57,58)"/>
<path d="M0 0 C0.680625 0.7425 1.36125 1.485 2.0625 2.25 C6.59898188 6.71023848 10.53673819 9.23995171 16.9375 9.25 C18.29274851 9.18664949 19.64776973 9.11038614 21 9 C21.33 7.02 21.66 5.04 22 3 C22.66 3 23.32 3 24 3 C24.08004482 6.5219721 24.04005702 9.61981469 23 13 C21.68 13.33 20.36 13.66 19 14 C19 13.01 19 12.02 19 11 C17.35 11 15.7 11 14 11 C14 11.66 14 12.32 14 13 C10.08014044 13.3646381 8.50281781 13.38588343 5.3125 10.9375 C4.549375 10.298125 3.78625 9.65875 3 9 C2.01 9.33 1.02 9.66 0 10 C0 6.7 0 3.4 0 0 Z " fill="#F8EDF6" transform="translate(144,162)"/>
<path d="M0 0 C0.66 0 1.32 0 2 0 C3.54296875 1.609375 3.54296875 1.609375 5.1875 3.75 C5.73792969 4.44609375 6.28835937 5.1421875 6.85546875 5.859375 C8 8 8 8 7.8671875 10.03125 C6.85537451 12.32833896 5.61883465 13.88979996 3.9375 15.75 C3.38964844 16.36359375 2.84179688 16.9771875 2.27734375 17.609375 C1.85582031 18.06828125 1.43429688 18.5271875 1 19 C0.01 18.67 -0.98 18.34 -2 18 C-2.6875 15.25 -2.6875 15.25 -3 12 C-2.505 11.360625 -2.01 10.72125 -1.5 10.0625 C0.40634812 7.92326573 0.40634812 7.92326573 -0.375 4.3125 C-0.58125 3.219375 -0.7875 2.12625 -1 1 C-0.67 0.67 -0.34 0.34 0 0 Z " fill="#D47437" transform="translate(123,125)"/>
<path d="M0 0 C0.99 0.66 1.98 1.32 3 2 C3 2.66 3 3.32 3 4 C4.65 4.33 6.3 4.66 8 5 C8.33 6.32 8.66 7.64 9 9 C7.02 9.33 5.04 9.66 3 10 C3 10.99 3 11.98 3 13 C0.69 12.67 -1.62 12.34 -4 12 C-5.39864092 8.82127065 -4.89282517 7.69888978 -3.6875 4.3125 C-2 1 -2 1 0 0 Z " fill="#089A77" transform="translate(122,97)"/>
<path d="M0 0 C5.01918977 6.61620469 5.01918977 6.61620469 4.875 9.5 C3.7866184 12.60966171 2.92195208 13.49953812 0 15 C-3.25 15.1875 -3.25 15.1875 -6 15 C-6.125 8.25 -6.125 8.25 -5 6 C-4.67 5.01 -4.34 4.02 -4 3 C-3.01 3.33 -2.02 3.66 -1 4 C-0.67 2.68 -0.34 1.36 0 0 Z " fill="#E35E20" transform="translate(100,130)"/>
<path d="M0 0 C4.62 0 9.24 0 14 0 C13.67 2.64 13.34 5.28 13 8 C10.69 8.33 8.38 8.66 6 9 C6 8.34 6 7.68 6 7 C5.01 7 4.02 7 3 7 C3 6.34 3 5.68 3 5 C2.34 5 1.68 5 1 5 C0.67 3.35 0.34 1.7 0 0 Z " fill="#FAE205" transform="translate(57,112)"/>
<path d="M0 0 C1.5675 -0.04125 3.135 -0.0825 4.75 -0.125 C5.63171875 -0.14820313 6.5134375 -0.17140625 7.421875 -0.1953125 C10.1135858 0.00860498 11.69904974 0.63448279 14 2 C8.25 6 8.25 6 6 6 C6 6.66 6 7.32 6 8 C4.25 9.7265625 4.25 9.7265625 2 11.625 C1.2575 12.25664063 0.515 12.88828125 -0.25 13.5390625 C-0.8275 14.02117187 -1.405 14.50328125 -2 15 C-2.66 14.67 -3.32 14.34 -4 14 C-4 13.34 -4 12.68 -4 12 C-2.68 11.67 -1.36 11.34 0 11 C0 7.37 0 3.74 0 0 Z " fill="#F6FBF7" transform="translate(136,64)"/>
<path d="M0 0 C0.66 0.33 1.32 0.66 2 1 C1.67 5.95 1.34 10.9 1 16 C1.66 16 2.32 16 3 16 C3 11.38 3 6.76 3 2 C3.99 2.33 4.98 2.66 6 3 C6.20059322 10.31050841 6.36907949 17.02437706 4 24 C3.34 24.66 2.68 25.32 2 26 C-0.36385211 18.12049297 -2.6333365 7.99900711 0 0 Z " fill="#F8F2D8" transform="translate(57,136)"/>
<path d="M0 0 C4.875 1.875 4.875 1.875 6 3 C5.85531441 4.73327427 5.65867723 6.46231762 5.4375 8.1875 C4.97140316 12.66202962 5.08255646 15.82674053 7 20 C5 18.6875 5 18.6875 3 17 C3 16.01 3 15.02 3 14 C2.01 14 1.02 14 0 14 C-0.99293628 11.02119115 -1.13406411 8.98398802 -1.125 5.875 C-1.12757812 4.98554687 -1.13015625 4.09609375 -1.1328125 3.1796875 C-1 1 -1 1 0 0 Z " fill="#FAFADE" transform="translate(49,98)"/>
<path d="M0 0 C4.875 1.75 4.875 1.75 6 4 C7.2375 4.680625 7.2375 4.680625 8.5 5.375 C11 7 11 7 11.875 8.8125 C12.03743311 11.65507945 11.56880795 14.21916112 11 17 C10.21625 17.103125 9.4325 17.20625 8.625 17.3125 C5.66954819 17.77595022 5.66954819 17.77595022 4 21 C3.67 18.03 3.34 15.06 3 12 C4.98 11.67 6.96 11.34 9 11 C8.67 9.68 8.34 8.36 8 7 C7.01 7.33 6.02 7.66 5 8 C5 7.34 5 6.68 5 6 C4.34 6 3.68 6 3 6 C1.375 4.6875 1.375 4.6875 0 3 C0 2.01 0 1.02 0 0 Z " fill="#138599" transform="translate(122,95)"/>
<path d="M0 0 C0.33 0.66 0.66 1.32 1 2 C0.67 2.99 0.34 3.98 0 5 C-0.66 5 -1.32 5 -2 5 C-2 6.65 -2 8.3 -2 10 C-5.07617188 10.29296875 -5.07617188 10.29296875 -8.15234375 10.5859375 C-8.76207031 10.72257813 -9.37179688 10.85921875 -10 11 C-10.33 11.66 -10.66 12.32 -11 13 C-11.66 13 -12.32 13 -13 13 C-12.25 5.25 -12.25 5.25 -10 3 C-7.87109375 2.40234375 -7.87109375 2.40234375 -5.4375 1.9375 C-2.4322803 1.53522134 -2.4322803 1.53522134 0 0 Z " fill="#F07A21" transform="translate(74,147)"/>
<path d="M0 0 C-1.32 0.33 -2.64 0.66 -4 1 C-4 1.66 -4 2.32 -4 3 C-3.01 3 -2.02 3 -1 3 C-1 3.66 -1 4.32 -1 5 C-4.96 5 -8.92 5 -13 5 C-13.185625 6.8253125 -13.185625 6.8253125 -13.375 8.6875 C-13.78891306 12.06479059 -14.54573451 14.89756695 -16 18 C-16.99 17.67 -17.98 17.34 -19 17 C-18.3917438 12.13395042 -17.55766519 7.24403784 -15 3 C-9.95270577 -0.16692971 -5.7576632 -0.30303491 0 0 Z " fill="#F8EBD3" transform="translate(100,145)"/>
<path d="M0 0 C0.99 0.33 1.98 0.66 3 1 C3 2.98 3 4.96 3 7 C4.02480469 7.17015625 5.04960938 7.3403125 6.10546875 7.515625 C7.46628646 7.75963369 8.82695608 8.00446928 10.1875 8.25 C10.86103516 8.35957031 11.53457031 8.46914062 12.22851562 8.58203125 C16.8119654 9.43164633 19.67623789 10.72659792 23 14 C23.8125 16.25 23.8125 16.25 24 18 C23.34 18 22.68 18 22 18 C21.34 17.01 20.68 16.02 20 15 C17.66705225 14.95758277 15.33297433 14.95907063 13 15 C12.01 14.34 11.02 13.68 10 13 C9.319375 12.67 8.63875 12.34 7.9375 12 C6 11 6 11 4 9 C2.68252676 8.30251417 1.35085807 7.63040043 0 7 C0 4.69 0 2.38 0 0 Z " fill="#F4EDED" transform="translate(118,136)"/>
<path d="M0 0 C0.66 0 1.32 0 2 0 C2 0.66 2 1.32 2 2 C3.65 2 5.3 2 7 2 C7 2.99 7 3.98 7 5 C7.99 5.33 8.98 5.66 10 6 C7.64031256 8.09749995 6.45383006 8.96905704 3.25 9.1875 C2.5075 9.125625 1.765 9.06375 1 9 C1 9.66 1 10.32 1 11 C-0.32 11.33 -1.64 11.66 -3 12 C-3 9.69 -3 7.38 -3 5 C-2.34 5 -1.68 5 -1 5 C-0.67 3.35 -0.34 1.7 0 0 Z " fill="#F69B12" transform="translate(66,139)"/>
<path d="M0 0 C8.35010941 2.3107221 8.35010941 2.3107221 11.0625 5.1875 C11.371875 5.785625 11.68125 6.38375 12 7 C7.78316189 9.8990762 3.93133998 10.91343356 -1 12 C-1.125 9.125 -1.125 9.125 -1 6 C-0.34 5.34 0.32 4.68 1 4 C0.6814823 1.89179203 0.6814823 1.89179203 0 0 Z " fill="#FAFAE9" transform="translate(65,124)"/>
<path d="M0 0 C0.99 0.495 0.99 0.495 2 1 C2.625 3.5625 2.625 3.5625 3 6 C4.65 5.67 6.3 5.34 8 5 C8.125 8.375 8.125 8.375 8 12 C7.34 12.66 6.68 13.32 6 14 C5.60235737 15.98821313 5.26224651 17.98944339 5 20 C5.66 20 6.32 20 7 20 C7.33 19.34 7.66 18.68 8 18 C8 20.64 8 23.28 8 26 C3.49403263 22.99602176 3.15659618 19.13320777 2 14 C1.21951047 9.34596983 0.57365664 4.68373774 0 0 Z " fill="#BBDB29" transform="translate(40,70)"/>
<path d="M0 0 C1.32 0.33 2.64 0.66 4 1 C4 1.99 4 2.98 4 4 C5.32 4.33 6.64 4.66 8 5 C8.5625 6.9375 8.5625 6.9375 9 9 C7.10114904 10.89885096 4.42752097 10.12367506 1.91015625 10.1328125 C0 10 0 10 -2 9 C-2 8.34 -2 7.68 -2 7 C-2.66 6.67 -3.32 6.34 -4 6 C-3.34 6 -2.68 6 -2 6 C-2 5.34 -2 4.68 -2 4 C-1.34 4 -0.68 4 0 4 C0 2.68 0 1.36 0 0 Z " fill="#DC0C81" transform="translate(152,158)"/>
<path d="M0 0 C2 1 4 2 6 3 C6 4.98 6 6.96 6 9 C2.37 9 -1.26 9 -5 9 C-5 5 -5 5 -2.5 2.25 C-1.675 1.5075 -0.85 0.765 0 0 Z " fill="#C21370" transform="translate(130,136)"/>
<path d="M0 0 C2.97 0.33 5.94 0.66 9 1 C9 1.66 9 2.32 9 3 C11.64 2.34 14.28 1.68 17 1 C17 1.66 17 2.32 17 3 C17.66 3.33 18.32 3.66 19 4 C19 4.66 19 5.32 19 6 C20.32 6.66 21.64 7.32 23 8 C21.77410156 7.78537109 21.77410156 7.78537109 20.5234375 7.56640625 C16.56598062 6.9302297 12.60317338 6.42308174 8.625 5.9375 C7.88894531 5.84662109 7.15289062 5.75574219 6.39453125 5.66210938 C4.59649355 5.44027356 2.79826595 5.2199779 1 5 C0.67 3.35 0.34 1.7 0 0 Z " fill="#F4FAE0" transform="translate(31,48)"/>
<path d="M0 0 C-0.66 0.66 -1.32 1.32 -2 2 C-2.90833969 4.72501908 -3.18359985 6.62233971 -3.31640625 9.44921875 C-3.35830078 10.29677734 -3.40019531 11.14433594 -3.44335938 12.01757812 C-3.48267578 12.89865234 -3.52199219 13.77972656 -3.5625 14.6875 C-3.60568359 15.58017578 -3.64886719 16.47285156 -3.69335938 17.39257812 C-3.79935353 19.59490108 -3.90142051 21.79733473 -4 24 C-4.66 23.67 -5.32 23.34 -6 23 C-5.979375 21.9275 -5.95875 20.855 -5.9375 19.75 C-5.98730633 16.76161996 -6.27623691 14.80458196 -7 12 C-7 10 -7 8 -7 6 C-7.291224 4.32546201 -7.61070799 2.65449105 -8 1 C-2.25 -1.125 -2.25 -1.125 0 0 Z " fill="#EFE8CC" transform="translate(107,110)"/>
<path d="M0 0 C3.8665284 3.222107 4.88059018 6.14922412 6 11 C3.03 10.67 0.06 10.34 -3 10 C-4 7 -4 7 -2.625 3.875 C-1 1 -1 1 0 0 Z " fill="#33AC46" transform="translate(101,94)"/>
<path d="M0 0 C3.3 0 6.6 0 10 0 C7.28277663 1.35861168 4.89309262 2.45946997 2.06640625 3.4375 C1.33486328 3.69273438 0.60332031 3.94796875 -0.15039062 4.2109375 C-1.28250977 4.60152344 -1.28250977 4.60152344 -2.4375 5 C-9.26770295 7.36810913 -9.26770295 7.36810913 -16 10 C-15.9375 8.25 -15.9375 8.25 -15 6 C-9.78709162 2.17010813 -6.39220288 1.55142436 0 2 C0 1.34 0 0.68 0 0 Z " fill="#E9F7F5" transform="translate(168,54)"/>
<path d="M0 0 C1.37365621 2.74731243 1.0128639 4.81667064 0.87890625 7.8828125 C0.83056641 9.04941406 0.78222656 10.21601562 0.73242188 11.41796875 C0.67634766 12.64128906 0.62027344 13.86460938 0.5625 15.125 C0.51029297 16.35605469 0.45808594 17.58710937 0.40429688 18.85546875 C0.2743256 21.90388588 0.13934981 24.9519995 0 28 C-0.99 28.33 -1.98 28.66 -3 29 C-4.83928131 27.16071869 -4.17913207 24.64861765 -4.23046875 22.203125 C-4 20 -4 20 -3.0234375 17.6875 C-1.74330766 14.32593767 -1.61378691 11.33575067 -1.4375 7.75 C-1.09945355 1.09945355 -1.09945355 1.09945355 0 0 Z " fill="#2966A7" transform="translate(134,105)"/>
<path d="M0 0 C0.66 0 1.32 0 2 0 C0.38325319 3.42946293 -1.57597677 6.56263052 -3.625 9.75 C-4.57246094 11.22726563 -4.57246094 11.22726563 -5.5390625 12.734375 C-6.02117187 13.48203125 -6.50328125 14.2296875 -7 15 C-9.67927341 10.98108988 -9.15601248 8.75838077 -9 4 C-6.03 3.34 -3.06 2.68 0 2 C0 1.34 0 0.68 0 0 Z " fill="#ECF9F5" transform="translate(129,81)"/>
<path d="M0 0 C0.66 0 1.32 0 2 0 C2 1.65 2 3.3 2 5 C2.66 5 3.32 5 4 5 C3.98839844 5.85464844 3.97679687 6.70929688 3.96484375 7.58984375 C3.95582031 8.69457031 3.94679687 9.79929688 3.9375 10.9375 C3.92589844 12.03964844 3.91429687 13.14179688 3.90234375 14.27734375 C3.68737429 16.91447634 3.68737429 16.91447634 5 18 C5.14115161 20.67058851 5.04247107 23.32432238 5 26 C-0.78866409 20.21133591 0.38770827 7.74396261 0 0 Z " fill="#F7E9F8" transform="translate(161,138)"/>
<path d="M0 0 C3.78239671 0.65690619 7.21841526 1.720131 10.8125 3.0625 C11.78832031 3.42472656 12.76414062 3.78695312 13.76953125 4.16015625 C14.50558594 4.43730469 15.24164063 4.71445313 16 5 C15.01 5.495 15.01 5.495 14 6 C14 6.66 14 7.32 14 8 C12.6078125 7.7215625 12.6078125 7.7215625 11.1875 7.4375 C7.98656229 6.75876119 7.98656229 6.75876119 5 8 C4.731875 7.195625 4.46375 6.39125 4.1875 5.5625 C3.795625 4.716875 3.40375 3.87125 3 3 C2.01 2.67 1.02 2.34 0 2 C0 1.34 0 0.68 0 0 Z " fill="#BFE117" transform="translate(64,96)"/>
<path d="M0 0 C2.475 0.495 2.475 0.495 5 1 C4.67 1.66 4.34 2.32 4 3 C4.99 3 5.98 3 7 3 C6.01 6.96 5.02 10.92 4 15 C3.34 15 2.68 15 2 15 C1.34 10.05 0.68 5.1 0 0 Z " fill="#ED561B" transform="translate(90,121)"/>
<path d="M0 0 C0.185625 0.639375 0.37125 1.27875 0.5625 1.9375 C1.94246056 4.42126213 1.94246056 4.42126213 5.625 4.75 C6.73875 4.8325 7.8525 4.915 9 5 C9 5.66 9 6.32 9 7 C8.01 7 7.02 7 6 7 C6 7.99 6 8.98 6 10 C3.69 9.67 1.38 9.34 -1 9 C-2.0326802 6.21176345 -2.04509293 5.1322726 -1.0625 2.25 C-0.711875 1.5075 -0.36125 0.765 0 0 Z " fill="#139489" transform="translate(119,100)"/>
<path d="M0 0 C0.99 0.33 1.98 0.66 3 1 C1.59649895 5.91225366 -1.11811724 7.84597026 -5 11 C-5.69580267 12.31836295 -6.37224433 13.64791086 -7 15 C-7.99 15.33 -8.98 15.66 -10 16 C-10 16.66 -10 17.32 -10 18 C-10.99 17.67 -11.98 17.34 -13 17 C-12.34 17 -11.68 17 -11 17 C-11 16.34 -11 15.68 -11 15 C-10.34 15 -9.68 15 -9 15 C-9 14.01 -9 13.02 -9 12 C-8.34 12 -7.68 12 -7 12 C-6.7525 11.05125 -6.505 10.1025 -6.25 9.125 C-4.82576013 5.56440032 -4.28284113 5.48257341 -1 4 C-0.19471111 1.94999129 -0.19471111 1.94999129 0 0 Z " fill="#313791" transform="translate(145,116)"/>
<path d="M0 0 C-3.07692746 2.6815279 -5.19734663 3.42087807 -9.25 3.6875 C-10.14203125 3.75324219 -11.0340625 3.81898437 -11.953125 3.88671875 C-12.62859375 3.92410156 -13.3040625 3.96148437 -14 4 C-14 4.66 -14 5.32 -14 6 C-15.98 6.99 -15.98 6.99 -18 8 C-17.37081707 5.16867679 -16.67579102 3.45251205 -14.2265625 1.8125 C-4.83510321 -2.93559838 -4.83510321 -2.93559838 0 0 Z " fill="#237BBE" transform="translate(170,60)"/>
<path d="M0 0 C3.96 0 7.92 0 12 0 C11.67 0.99 11.34 1.98 11 3 C10.34 3 9.68 3 9 3 C9.99 4.485 9.99 4.485 11 6 C6.71 5.67 2.42 5.34 -2 5 C-1.01 4.67 -0.02 4.34 1 4 C0.67 2.68 0.34 1.36 0 0 Z " fill="#EBF5F5" transform="translate(183,48)"/>
<path d="M0 0 C2.65860951 2.28611202 3.53565794 4.02133191 4.25 7.4375 C4.42015625 8.19933594 4.5903125 8.96117187 4.765625 9.74609375 C5.01189239 12.11436516 4.71860801 13.74665061 4 16 C3.67 15.01 3.34 14.02 3 13 C2.34 12.67 1.68 12.34 1 12 C1 11.34 1 10.68 1 10 C0.01 10 -0.98 10 -2 10 C-2 9.34 -2 8.68 -2 8 C-2.66 7.67 -3.32 7.34 -4 7 C-3.01 6.34 -2.02 5.68 -1 5 C-0.27034634 2.43717258 -0.27034634 2.43717258 0 0 Z " fill="#922184" transform="translate(160,150)"/>
<path d="M0 0 C0.99 0.33 1.98 0.66 3 1 C3.66 0.67 4.32 0.34 5 0 C4.67 0.99 4.34 1.98 4 3 C3.34 3 2.68 3 2 3 C1.67 5.97 1.34 8.94 1 12 C-0.32 11.67 -1.64 11.34 -3 11 C-3.36923077 3.49230769 -3.36923077 3.49230769 -1.5 1 C-1.005 0.67 -0.51 0.34 0 0 Z " fill="#1788CA" transform="translate(138,76)"/>
<path d="M0 0 C0.309375 0.639375 0.61875 1.27875 0.9375 1.9375 C1.8345163 3.93610821 1.8345163 3.93610821 3 5 C3.04080783 6.99958364 3.04254356 9.00045254 3 11 C1.35 11 -0.3 11 -2 11 C-2 10.34 -2 9.68 -2 9 C-2.928125 8.7834375 -2.928125 8.7834375 -3.875 8.5625 C-6 8 -6 8 -8 7 C-7.67 6.34 -7.34 5.68 -7 5 C-4.69 5.33 -2.38 5.66 0 6 C0 4.02 0 2.04 0 0 Z " fill="#76B048" transform="translate(98,111)"/>
<path d="M0 0 C0.33 0.99 0.66 1.98 1 3 C0.01 4.485 0.01 4.485 -1 6 C-1.44941255 8.38299617 -1.81606943 10.78225484 -2.125 13.1875 C-2.29257813 14.45980469 -2.46015625 15.73210937 -2.6328125 17.04296875 C-2.75398437 18.01878906 -2.87515625 18.99460937 -3 20 C-5.74808262 17.25191738 -5.3636712 15.52225466 -5.4375 11.6875 C-5.37752121 5.66296408 -5.37752121 5.66296408 -3.87890625 3.03125 C-2.5 1.6875 -2.5 1.6875 0 0 Z " fill="#2D5E9C" transform="translate(186,64)"/>
<path d="M0 0 C0.66 0.33 1.32 0.66 2 1 C1.67 5.95 1.34 10.9 1 16 C1.66 16 2.32 16 3 16 C4.38125018 18.76250036 4.19079306 20.94731099 4 24 C3.34 24.66 2.68 25.32 2 26 C-0.36385211 18.12049297 -2.6333365 7.99900711 0 0 Z " fill="#F9F7ED" transform="translate(57,136)"/>
<path d="M0 0 C0.33 0 0.66 0 1 0 C1.98248524 4.0527516 2.08159574 7.83861737 2 12 C0 10 0 10 -0.125 7.375 C-0.08375 6.59125 -0.0425 5.8075 0 5 C-0.66 5 -1.32 5 -2 5 C-1.67 5.99 -1.34 6.98 -1 8 C-2.8125 10.6875 -2.8125 10.6875 -5 13 C-5.66 13 -6.32 13 -7 13 C-5.58795406 7.73691968 -3.31008693 4.2437012 0 0 Z " fill="#F1880B" transform="translate(88,123)"/>
<path d="M0 0 C1.65 0.33 3.3 0.66 5 1 C4.67 2.98 4.34 4.96 4 7 C2.68 7.33 1.36 7.66 0 8 C-1.32 6.35 -2.64 4.7 -4 3 C-2.68 2.67 -1.36 2.34 0 2 C0 1.34 0 0.68 0 0 Z " fill="#EDF7E9" transform="translate(91,72)"/>
<path d="M0 0 C-1.625 5.75 -1.625 5.75 -5 8 C-7.1875 7.625 -7.1875 7.625 -9 7 C-7.68 6.01 -6.36 5.02 -5 4 C-6.32 2.68 -7.64 1.36 -9 0 C-5.62182575 -0.84454356 -3.32534757 -1.10844919 0 0 Z " fill="#F0DA31" transform="translate(81,126)"/>
<path d="M0 0 C1.32 0 2.64 0 4 0 C4 0.99 4 1.98 4 3 C4.66 3 5.32 3 6 3 C6 3.66 6 4.32 6 5 C6.99 5 7.98 5 9 5 C9 5.66 9 6.32 9 7 C9.5775 7.0825 10.155 7.165 10.75 7.25 C13.6159304 8.20531013 14.9990764 9.78469173 17 12 C11.91353417 10.7792482 8.20353067 9.28080442 4 6 C4 5.34 4 4.68 4 4 C3.34 4 2.68 4 2 4 C1.34 2.68 0.68 1.36 0 0 Z " fill="#F2E343" transform="translate(54,114)"/>
<path d="M0 0 C0.66 0 1.32 0 2 0 C3.18771723 3.42943519 2.80226223 5.37784675 1.5625 8.75 C1.27503906 9.54921875 0.98757812 10.3484375 0.69140625 11.171875 C0.46324219 11.77515625 0.23507813 12.3784375 0 13 C-0.99 12.67 -1.98 12.34 -3 12 C-2.40075776 7.80530429 -1.42500059 3.99000166 0 0 Z " fill="#F6EFE4" transform="translate(84,150)"/>
<path d="M0 0 C2.97 0.495 2.97 0.495 6 1 C5.67 3.31 5.34 5.62 5 8 C2.69 8 0.38 8 -2 8 C-2.33 7.34 -2.66 6.68 -3 6 C-2.01 5.34 -1.02 4.68 0 4 C0 2.68 0 1.36 0 0 Z " fill="#D82287" transform="translate(160,163)"/>
<path d="M0 0 C0.99 0 1.98 0 3 0 C3 0.99 3 1.98 3 3 C4.32 3 5.64 3 7 3 C7 3.66 7 4.32 7 5 C6.01 5 5.02 5 4 5 C3.67 5.99 3.34 6.98 3 8 C2.01 7.34 1.02 6.68 0 6 C-1.9896995 5.60986284 -3.99019869 5.26797351 -6 5 C-5.34 4.34 -4.68 3.68 -4 3 C-3.01 3 -2.02 3 -1 3 C-0.67 2.01 -0.34 1.02 0 0 Z " fill="#BA2188" transform="translate(136,141)"/>
<path d="M0 0 C0.99 0 1.98 0 3 0 C3 0.99 3 1.98 3 3 C3.66 3 4.32 3 5 3 C4.01 5.97 3.02 8.94 2 12 C0.68 11.67 -0.64 11.34 -2 11 C-1.67 10.113125 -1.34 9.22625 -1 8.3125 C-0.08777857 5.29076653 0.18330958 3.11626294 0 0 Z " fill="#83CE2B" transform="translate(93,103)"/>
<path d="M0 0 C4.83256305 0.41421969 6.82679218 2.46413986 10 6 C6.21680921 6 2.74120806 5.60342066 -1 5 C-1.33 4.34 -1.66 3.68 -2 3 C-1.34 2.34 -0.68 1.68 0 1 C0 0.67 0 0.34 0 0 Z " fill="#32AD42" transform="translate(75,68)"/>
<path d="M0 0 C0.33 0.66 0.66 1.32 1 2 C-3.04479388 3.96611502 -5.86885748 4.11331236 -10.3125 3.625 C-11.91544922 3.45871094 -11.91544922 3.45871094 -13.55078125 3.2890625 C-14.76314453 3.14597656 -14.76314453 3.14597656 -16 3 C-16 2.67 -16 2.34 -16 2 C-14.948125 1.87625 -13.89625 1.7525 -12.8125 1.625 C-9.1147768 1.17007934 -9.1147768 1.17007934 -6.3125 -0.125 C-3.6840801 -1.11953726 -2.56089065 -1.09752456 0 0 Z " fill="#702484" transform="translate(148,132)"/>
<path d="M0 0 C0.75 1.625 0.75 1.625 1 4 C-0.75 6.875 -0.75 6.875 -3 10 C-4.02930047 11.98507948 -5.03863929 13.98114251 -6 16 C-6.97608217 13.07175348 -7.08226668 11.04386724 -7 8 C-6.01 8 -5.02 8 -4 8 C-3.8453125 7.13375 -3.8453125 7.13375 -3.6875 6.25 C-2.90207202 3.67950842 -1.69495803 2.06342716 0 0 Z " fill="#F7AE11" transform="translate(87,120)"/>
<path d="M0 0 C2.95183101 2.95183101 3.08663988 5.95511947 4 10 C2.18504338 9.55149342 0.37306866 9.09090429 -1.4375 8.625 C-2.44683594 8.36976562 -3.45617187 8.11453125 -4.49609375 7.8515625 C-7 7 -7 7 -8 5 C-5.36 5 -2.72 5 0 5 C0 3.35 0 1.7 0 0 Z " fill="#9FD51D" transform="translate(76,91)"/>
<path d="M0 0 C0.94875 0.04125 1.8975 0.0825 2.875 0.125 C2.6171875 2.01953125 2.6171875 2.01953125 1.875 4.125 C0.1328125 5.13671875 0.1328125 5.13671875 -2 5.8125 C-2.69867188 6.04324219 -3.39734375 6.27398437 -4.1171875 6.51171875 C-5.11105469 6.81529297 -5.11105469 6.81529297 -6.125 7.125 C-7.115 7.455 -8.105 7.785 -9.125 8.125 C-9.125 7.465 -9.125 6.805 -9.125 6.125 C-8.465 5.795 -7.805 5.465 -7.125 5.125 C-6.465 4.135 -5.805 3.145 -5.125 2.125 C-3.125 0.125 -3.125 0.125 0 0 Z " fill="#2159AE" transform="translate(178.125,79.875)"/>
<path d="M0 0 C0.66 0 1.32 0 2 0 C2.33 0.99 2.66 1.98 3 3 C1.59138651 4.01131225 0.17274547 5.00866767 -1.25 6 C-2.43335938 6.8353125 -2.43335938 6.8353125 -3.640625 7.6875 C-6 9 -6 9 -10 9 C-10 8.34 -10 7.68 -10 7 C-8.06640625 5.52734375 -8.06640625 5.52734375 -5.5625 3.9375 C-2.6281857 2.16321108 -2.6281857 2.16321108 0 0 Z " fill="#EBF0F3" transform="translate(168,117)"/>
<path d="M0 0 C0.33 0 0.66 0 1 0 C1 4 1 8 1 12 C-3.625 14.125 -3.625 14.125 -7 13 C-6.21625 12.154375 -5.4325 11.30875 -4.625 10.4375 C-1.83068977 7.12074083 -0.92487099 4.20395906 0 0 Z " fill="#E3EAEF" transform="translate(182,84)"/>
<path d="M0 0 C0.33 0 0.66 0 1 0 C1.12117188 0.86882812 1.24234375 1.73765625 1.3671875 2.6328125 C1.53476562 3.78523438 1.70234375 4.93765625 1.875 6.125 C2.03742187 7.26195313 2.19984375 8.39890625 2.3671875 9.5703125 C2.97431417 12.86078915 3.86345633 15.85779103 5 19 C2.525 18.01 2.525 18.01 0 17 C0.33 15.68 0.66 14.36 1 13 C0.34 12.67 -0.32 12.34 -1 12 C-0.67 8.04 -0.34 4.08 0 0 Z " fill="#F1F8C5" transform="translate(41,76)"/>
<path d="M0 0 C1.98 0.66 3.96 1.32 6 2 C5.01 2.495 5.01 2.495 4 3 C4 3.66 4 4.32 4 5 C4.99 4.67 5.98 4.34 7 4 C6.67 5.32 6.34 6.64 6 8 C2.37 6.35 -1.26 4.7 -5 3 C-3.68 2.34 -2.36 1.68 -1 1 C-0.67 0.67 -0.34 0.34 0 0 Z " fill="#E0F4DC" transform="translate(65,56)"/>
<path d="M0 0 C4.48993966 0.02675769 8.15158027 0.33820234 12.3125 2.1875 C12.3125 2.5175 12.3125 2.8475 12.3125 3.1875 C9.0125 2.8575 5.7125 2.5275 2.3125 2.1875 C1.9825 2.8475 1.6525 3.5075 1.3125 4.1875 C0.9825 3.1975 0.6525 2.2075 0.3125 1.1875 C-1.3375 1.1875 -2.9875 1.1875 -4.6875 1.1875 C-5.0175 2.1775 -5.3475 3.1675 -5.6875 4.1875 C-6.0175 3.1975 -6.3475 2.2075 -6.6875 1.1875 C-4.91381653 -0.58618347 -2.39854575 0.0147512 0 0 Z " fill="#AACF40" transform="translate(37.6875,52.8125)"/>
<path d="M0 0 C2.64 0.66 5.28 1.32 8 2 C8 3.32 8 4.64 8 6 C8.66 6 9.32 6 10 6 C10 7.32 10 8.64 10 10 C9.34 10 8.68 10 8 10 C8 9.01 8 8.02 8 7 C7.01 7 6.02 7 5 7 C5 6.34 5 5.68 5 5 C4.360625 4.731875 3.72125 4.46375 3.0625 4.1875 C1 3 1 3 0 0 Z " fill="#971F81" transform="translate(131,134)"/>
<path d="M0 0 C0.99 0.33 1.98 0.66 3 1 C3 1.66 3 2.32 3 3 C3.99 3.33 4.98 3.66 6 4 C4.75336669 4.50833591 3.50250613 5.00631145 2.25 5.5 C1.55390625 5.7784375 0.8578125 6.056875 0.140625 6.34375 C-2 7 -2 7 -6 7 C-6 6.34 -6 5.68 -6 5 C-3.1875 2.3125 -3.1875 2.3125 0 0 Z " fill="#402F86" transform="translate(141,127)"/>
<path d="M0 0 C0.66 0.33 1.32 0.66 2 1 C2.12375 1.7425 2.2475 2.485 2.375 3.25 C3.14599835 6.64239274 4.71898641 8.42466207 7 11 C6.67 11.66 6.34 12.32 6 13 C5.67 12.01 5.34 11.02 5 10 C3.68 10.33 2.36 10.66 1 11 C1 10.34 1 9.68 1 9 C0.01 9 -0.98 9 -2 9 C-1.67 8.443125 -1.34 7.88625 -1 7.3125 C0.1309601 4.69715478 0.15662974 2.8193354 0 0 Z " fill="#EEF5D0" transform="translate(30,53)"/>
<path d="M0 0 C0.66 0 1.32 0 2 0 C3.5078125 1.96875 3.5078125 1.96875 5.125 4.5 C5.66382813 5.3353125 6.20265625 6.170625 6.7578125 7.03125 C7.16773438 7.6809375 7.57765625 8.330625 8 9 C2.21357063 7.98832036 2.21357063 7.98832036 0 5 C-0.75 2.875 -0.75 2.875 -1 1 C-0.67 0.67 -0.34 0.34 0 0 Z " fill="#8F9E47" transform="translate(123,125)"/>
<path d="M0 0 C4.875 1.75 4.875 1.75 6 4 C6.845625 4.495 7.69125 4.99 8.5625 5.5 C9.366875 5.995 10.17125 6.49 11 7 C11 7.66 11 8.32 11 9 C10.01 9 9.02 9 8 9 C8 8.34 8 7.68 8 7 C7.01 7.33 6.02 7.66 5 8 C5 7.34 5 6.68 5 6 C4.34 6 3.68 6 3 6 C1.375 4.6875 1.375 4.6875 0 3 C0 2.01 0 1.02 0 0 Z " fill="#0D9A9B" transform="translate(122,95)"/>
<path d="M0 0 C2.1519437 3.22791555 2.20086443 4.28400809 2 8 C-2.75 10 -2.75 10 -5 10 C-3.66511872 6.40608886 -2.03977277 3.24509304 0 0 Z " fill="#E2EFF2" transform="translate(194,54)"/>
<path d="M0 0 C1.65 0 3.3 0 5 0 C5.66 2.31 6.32 4.62 7 7 C6.01 7.33 5.02 7.66 4 8 C2.9375 6.125 2.9375 6.125 2 4 C2.33 3.34 2.66 2.68 3 2 C2.34 2 1.68 2 1 2 C1 2.66 1 3.32 1 4 C0.34 4 -0.32 4 -1 4 C-0.67 2.68 -0.34 1.36 0 0 Z " fill="#A7D619" transform="translate(33,54)"/>
<path d="M0 0 C0.99 0.495 0.99 0.495 2 1 C3.70702735 1.06996014 5.41668003 1.08440154 7.125 1.0625 C8.03507812 1.05347656 8.94515625 1.04445312 9.8828125 1.03515625 C10.93082031 1.01775391 10.93082031 1.01775391 12 1 C12.33 1.66 12.66 2.32 13 3 C12.67 3.99 12.34 4.98 12 6 C9.97448078 5.49362019 7.95188677 4.98687821 5.9375 4.4375 C3.84332634 3.88986956 3.84332634 3.88986956 1 4 C0.67 2.68 0.34 1.36 0 0 Z " fill="#FAEFE1" transform="translate(60,170)"/>
<path d="M0 0 C1.80317221 3.96697886 2.49202991 7.6822542 3 12 C2.38125 11.1646875 2.38125 11.1646875 1.75 10.3125 C0.47969605 8.63388406 -0.83985123 6.99217853 -2.1875 5.375 C-4 3 -4 3 -4 1 C-2 0 -2 0 0 0 Z " fill="#E5F6E0" transform="translate(100,83)"/>
<path d="M0 0 C0.98120464 3.05263664 0.98120464 4.94736336 0 8 C-1.98 8 -3.96 8 -6 8 C-4.55746343 4.63408134 -2.66735273 2.48952921 0 0 Z " fill="#D82146" transform="translate(130,136)"/>
<path d="M0 0 C2.38564077 0.57584432 4.66682784 1.22227595 7 2 C7 2.66 7 3.32 7 4 C8.32 4 9.64 4 11 4 C12.0625 5.8125 12.0625 5.8125 13 8 C12.67 8.99 12.34 9.98 12 11 C11.34 9.02 10.68 7.04 10 5 C8.9171875 4.814375 8.9171875 4.814375 7.8125 4.625 C5.04278106 4.0095069 2.6029646 3.11555626 0 2 C0 1.34 0 0.68 0 0 Z " fill="#C66A27" transform="translate(89,118)"/>
<path d="M0 0 C2.31 0 4.62 0 7 0 C7 0.66 7 1.32 7 2 C6.34 2 5.68 2 5 2 C4.67 3.32 4.34 4.64 4 6 C2.68 5.34 1.36 4.68 0 4 C0 2.68 0 1.36 0 0 Z " fill="#F7D517" transform="translate(68,134)"/>
<path d="M0 0 C0.99 0.99 1.98 1.98 3 3 C-1.21683811 5.8990762 -5.06866002 6.91343356 -10 8 C-10 7.34 -10 6.68 -10 6 C-7.52653696 3.52653696 -6.29238832 3.01686856 -2.75 2.8125 C-1.38875 2.9053125 -1.38875 2.9053125 0 3 C0 2.01 0 1.02 0 0 Z " fill="#FAF9D1" transform="translate(74,128)"/>
<path d="M0 0 C-0.66 0.66 -1.32 1.32 -2 2 C-3.10540926 4.78918149 -3.10540926 4.78918149 -3 7 C-3.66 7 -4.32 7 -5 7 C-5 6.34 -5 5.68 -5 5 C-5.99 5 -6.98 5 -8 5 C-7.67 3.35 -7.34 1.7 -7 0 C-2.25 -1.125 -2.25 -1.125 0 0 Z " fill="#E6F5D8" transform="translate(107,110)"/>
<path d="M0 0 C2 1 4 2 6 3 C6 3.66 6 4.32 6 5 C6.99 5 7.98 5 9 5 C9 5.66 9 6.32 9 7 C9.99 7.33 10.98 7.66 12 8 C9 9 9 9 6.5 8.375 C2.86959696 6.37827833 1.79511504 3.59023008 0 0 Z " fill="#B71385" transform="translate(152,155)"/>
<path d="M0 0 C0.66 0 1.32 0 2 0 C2.36923077 6.52307692 2.36923077 6.52307692 0.5 8.9375 C0.005 9.288125 -0.49 9.63875 -1 10 C-2.25 3.375 -2.25 3.375 0 0 Z " fill="#DE6722" transform="translate(124,134)"/>
<path d="M0 0 C-0.47202486 4.24822374 -2.96655518 6.19989709 -6 9 C-6.125 3.25 -6.125 3.25 -5 1 C-2 0 -2 0 0 0 Z " fill="#285B9A" transform="translate(194,54)"/>
<path d="M0 0 C1.65 0 3.3 0 5 0 C4.67 0.66 4.34 1.32 4 2 C3.34 2 2.68 2 2 2 C2 2.66 2 3.32 2 4 C3.98 3.34 5.96 2.68 8 2 C8 2.99 8 3.98 8 5 C3.545 5.495 3.545 5.495 -1 6 C-0.67 4.02 -0.34 2.04 0 0 Z " fill="#F57319" transform="translate(64,152)"/>
<path d="M0 0 C2.9719385 1.12451727 5.33440687 2.22293791 8 4 C8 4.66 8 5.32 8 6 C3.50347222 6.36458333 3.50347222 6.36458333 1.1875 4.6875 C0 3 0 3 0 0 Z " fill="#9B1783" transform="translate(144,146)"/>
<path d="M0 0 C3.3 0 6.6 0 10 0 C6.81928996 1.59035502 4.12342347 2.64848268 0.75 3.625 C-0.58804688 4.01558594 -0.58804688 4.01558594 -1.953125 4.4140625 C-2.62859375 4.60742188 -3.3040625 4.80078125 -4 5 C-3.67 4.01 -3.34 3.02 -3 2 C-2.01 2 -1.02 2 0 2 C0 1.34 0 0.68 0 0 Z " fill="#C6E5F0" transform="translate(168,54)"/>
<path d="M0 0 C2.0625 1.6875 2.0625 1.6875 4 4 C4 6.625 4 6.625 3 9 C0.9375 10.3125 0.9375 10.3125 -1 11 C-0.67 9.68 -0.34 8.36 0 7 C0.66 7 1.32 7 2 7 C1.34 4.69 0.68 2.38 0 0 Z " fill="#D47047" transform="translate(101,133)"/>
<path d="M0 0 C2.97 0.495 2.97 0.495 6 1 C3.31158141 3.25245881 1.35358125 4.88213958 -2 6 C-2.33 6.66 -2.66 7.32 -3 8 C-3 7.01 -3 6.02 -3 5 C-2.34 5 -1.68 5 -1 5 C-0.67 3.35 -0.34 1.7 0 0 Z " fill="#E5F7F8" transform="translate(144,64)"/>
<path d="M0 0 C2.97 0 5.94 0 9 0 C9 1.98 9 3.96 9 6 C5.88802644 4.50164236 2.91164984 2.86022073 0 1 C0 0.67 0 0.34 0 0 Z " fill="#E2F6E2" transform="translate(73,64)"/>
<path d="M0 0 C6.32258065 -0.36476427 6.32258065 -0.36476427 9.4375 1.3125 C11 3 11 3 11 6 C9.0625 5.6875 9.0625 5.6875 7 5 C6.67 4.01 6.34 3.02 6 2 C3.03 1.505 3.03 1.505 0 1 C0 0.67 0 0.34 0 0 Z " fill="#70297A" transform="translate(150,134)"/>
<path d="M0 0 C0.66 0.33 1.32 0.66 2 1 C2 2.66666667 2 4.33333333 2 6 C1.360625 6.12375 0.72125 6.2475 0.0625 6.375 C-0.9584375 6.684375 -0.9584375 6.684375 -2 7 C-2.33 7.66 -2.66 8.32 -3 9 C-3.36923077 3.46153846 -3.36923077 3.46153846 -1.5 1.125 C-1.005 0.75375 -0.51 0.3825 0 0 Z " fill="#EFF2F6" transform="translate(173,98)"/>
<path d="M0 0 C0.66 0.66 1.32 1.32 2 2 C1.96712417 4.72869407 1.43602229 7.2966618 1 10 C0.34 10 -0.32 10 -1 10 C-1.02689216 8.52093108 -1.04634621 7.04172517 -1.0625 5.5625 C-1.07410156 4.73878906 -1.08570313 3.91507812 -1.09765625 3.06640625 C-1 1 -1 1 0 0 Z " fill="#99D318" transform="translate(44,65)"/>
<path d="M0 0 C3.26925766 3.26925766 4.125 5.66683692 4.125 10.25 C4.08375 11.4875 4.0425 12.725 4 14 C1.37548383 11.37548383 1.4167132 9.5122172 0.875 5.875 C0.70742187 4.77929688 0.53984375 3.68359375 0.3671875 2.5546875 C0.24601563 1.71164063 0.12484375 0.86859375 0 0 Z " fill="#F3D6F0" transform="translate(162,150)"/>
<path d="M0 0 C1.32 0.33 2.64 0.66 4 1 C1.69 3.64 -0.62 6.28 -3 9 C-3.33 8.01 -3.66 7.02 -4 6 C-3.67 5.34 -3.34 4.68 -3 4 C-2.34 4 -1.68 4 -1 4 C-0.67 2.68 -0.34 1.36 0 0 Z " fill="#234D9F" transform="translate(156,92)"/>
<path d="M0 0 C0.66 1.32 1.32 2.64 2 4 C2.66 4 3.32 4 4 4 C4.33 3.34 4.66 2.68 5 2 C5 4.64 5 7.28 5 10 C1.64085078 7.76056718 1.18318364 6.73157917 0 3 C0 2.01 0 1.02 0 0 Z " fill="#B9D63D" transform="translate(43,86)"/>
<path d="M0 0 C0.66 0 1.32 0 2 0 C0.125 5.75 0.125 5.75 -1 8 C-2.32 7.67 -3.64 7.34 -5 7 C-4.21654285 5.82780457 -3.42297164 4.66236332 -2.625 3.5 C-2.18414062 2.8503125 -1.74328125 2.200625 -1.2890625 1.53125 C-0.65097656 0.77328125 -0.65097656 0.77328125 0 0 Z " fill="#FDB510" transform="translate(78,136)"/>
<path d="M0 0 C3.3125 0.1875 3.3125 0.1875 7 1 C8.9375 3.5625 8.9375 3.5625 10 6 C8.68 6 7.36 6 6 6 C6 5.34 6 4.68 6 4 C5.071875 3.7834375 5.071875 3.7834375 4.125 3.5625 C2 3 2 3 0 2 C0 1.34 0 0.68 0 0 Z " fill="#82A02A" transform="translate(90,116)"/>
<path d="M0 0 C2.35953094 2.35953094 2.49141413 3.77895617 3 7 C0.69 6.67 -1.62 6.34 -4 6 C-4.33 5.01 -4.66 4.02 -5 3 C-3.68 3.33 -2.36 3.66 -1 4 C-1 4.66 -1 5.32 -1 6 C-0.34 6 0.32 6 1 6 C0.67 4.02 0.34 2.04 0 0 Z " fill="#3FAF51" transform="translate(104,98)"/>
<path d="M0 0 C0.89778361 2.69335083 1.56897081 5.1983103 2 8 C1.67 8.66 1.34 9.32 1 10 C0.34 10 -0.32 10 -1 10 C-2.25 3.375 -2.25 3.375 0 0 Z " fill="#F7F8F2" transform="translate(197,49)"/>
<path d="M0 0 C1.98 0 3.96 0 6 0 C5.01 0.495 5.01 0.495 4 1 C4 1.66 4 2.32 4 3 C0.7 3.33 -2.6 3.66 -6 4 C-6 3.67 -6 3.34 -6 3 C-5.195625 2.87625 -4.39125 2.7525 -3.5625 2.625 C-2.716875 2.41875 -1.87125 2.2125 -1 2 C-0.67 1.34 -0.34 0.68 0 0 Z " fill="#D26246" transform="translate(68,168)"/>
<path d="M0 0 C2.97 0 5.94 0 9 0 C9 0.66 9 1.32 9 2 C5.7 2.33 2.4 2.66 -1 3 C-0.67 2.01 -0.34 1.02 0 0 Z " fill="#F0FDF7" transform="translate(87,149)"/>
<path d="M0 0 C1.32 0.66 2.64 1.32 4 2 C3.8125 3.875 3.8125 3.875 3 6 C0.4375 7.25 0.4375 7.25 -2 8 C-1.67 7.4225 -1.34 6.845 -1 6.25 C0.27075898 3.80116138 0.27075898 3.80116138 0 0 Z " fill="#F9EFDF" transform="translate(104,136)"/>
<path d="M0 0 C0.66 0.33 1.32 0.66 2 1 C1 3 1 3 -1.875 4 C-2.90625 4.33 -3.9375 4.66 -5 5 C-5.99 5.66 -6.98 6.32 -8 7 C-7.9375 5.1875 -7.9375 5.1875 -7 3 C-3.5625 1.1875 -3.5625 1.1875 0 0 Z " fill="#D5D1E6" transform="translate(155,125)"/>
<path d="M0 0 C0.99 0 1.98 0 3 0 C2.67 3.63 2.34 7.26 2 11 C1.67 11 1.34 11 1 11 C0.67 7.37 0.34 3.74 0 0 Z " fill="#CDEBEC" transform="translate(122,111)"/>
<path d="M0 0 C1.98 0 3.96 0 6 0 C8.09350689 3.4019487 8.17942163 6.05272412 8 10 C7.67 10 7.34 10 7 10 C6.6596875 8.6078125 6.6596875 8.6078125 6.3125 7.1875 C4.78348767 3.47418434 3.5042219 2.75211095 0 1 C0 0.67 0 0.34 0 0 Z " fill="#D9E748" transform="translate(48,96)"/>
<path d="M0 0 C0.928125 0.0825 1.85625 0.165 2.8125 0.25 C2.4825 1.24 2.1525 2.23 1.8125 3.25 C-0.8275 3.58 -3.4675 3.91 -6.1875 4.25 C-4.36434338 1.00883268 -3.82500054 0.30000004 0 0 Z " fill="#244CA0" transform="translate(166.1875,87.75)"/>
<path d="M0 0 C1.32 0 2.64 0 4 0 C4 0.99 4 1.98 4 3 C4.66 3 5.32 3 6 3 C6 3.99 6 4.98 6 6 C3.00306862 5.00102287 1.97290587 4.34869747 0 2 C0 1.34 0 0.68 0 0 Z " fill="#CE0F8A" transform="translate(140,146)"/>
<path d="M0 0 C1.32 0.33 2.64 0.66 4 1 C3.319375 1.556875 3.319375 1.556875 2.625 2.125 C0.52970606 4.54264685 -0.12013285 6.95430602 -1 10 C-1.33 10 -1.66 10 -2 10 C-2.33 7.69 -2.66 5.38 -3 3 C-2.01 3 -1.02 3 0 3 C0 2.01 0 1.02 0 0 Z " fill="#DF8840" transform="translate(84,146)"/>
<path d="M0 0 C-0.639375 0.45375 -1.27875 0.9075 -1.9375 1.375 C-4.09702406 2.83921726 -4.09702406 2.83921726 -5 5 C-6.32 4.34 -7.64 3.68 -9 3 C-6.38997624 -0.48003168 -4.1689578 -0.27793052 0 0 Z " fill="#FAF1F8" transform="translate(157,128)"/>
<path d="M0 0 C1.32 0 2.64 0 4 0 C4 0.99 4 1.98 4 3 C4.66 3 5.32 3 6 3 C6.33 4.32 6.66 5.64 7 7 C6.01 6.67 5.02 6.34 4 6 C4 5.34 4 4.68 4 4 C3.34 4 2.68 4 2 4 C1.34 2.68 0.68 1.36 0 0 Z " fill="#F2EB53" transform="translate(54,114)"/>
<path d="M0 0 C3.0916909 2.52956528 3.90931332 5.22454612 5 9 C3.68 8.67 2.36 8.34 1 8 C0.67 5.36 0.34 2.72 0 0 Z " fill="#C1E316" transform="translate(83,107)"/>
<path d="M0 0 C0.33 1.98 0.66 3.96 1 6 C0.34 6 -0.32 6 -1 6 C-1 5.34 -1 4.68 -1 4 C-2.32 3.67 -3.64 3.34 -5 3 C-5 2.34 -5 1.68 -5 1 C-3 0 -3 0 0 0 Z " fill="#1AAD41" transform="translate(104,98)"/>
<path d="M0 0 C0.66 0.33 1.32 0.66 2 1 C2 2.32 2 3.64 2 5 C2.2981424 6.34164079 2.62243192 7.67851173 3 9 C-0.39914975 7.86695008 -1.05254451 6.87481525 -3 4 C-2.01 2.68 -1.02 1.36 0 0 Z " fill="#1992AD" transform="translate(125,90)"/>
<path d="M0 0 C1.35439668 2.70879335 1.06501451 5.00933268 1 8 C-0.98 8 -2.96 8 -5 8 C-4.54625 7.4225 -4.0925 6.845 -3.625 6.25 C-2.15886484 4.2199667 -1.05142216 2.26460157 0 0 Z " fill="#F18E0F" transform="translate(79,138)"/>
<path d="M0 0 C0.33 0 0.66 0 1 0 C0.67 2.97 0.34 5.94 0 9 C-0.66 9 -1.32 9 -2 9 C-2.25 3.375 -2.25 3.375 0 0 Z " fill="#E9C03E" transform="translate(65,135)"/>
<path d="M0 0 C0 0.99 0 1.98 0 3 C-4.75 4.125 -4.75 4.125 -7 3 C-7 2.34 -7 1.68 -7 1 C-2.25 0 -2.25 0 0 0 Z " fill="#62B629" transform="translate(98,114)"/>
<path d="M0 0 C1.61949011 2.57213134 2.04408751 3.67669159 1.625 6.75 C1.41875 7.4925 1.2125 8.235 1 9 C0.01 8.67 -0.98 8.34 -2 8 C-1.125 2.25 -1.125 2.25 0 0 Z " fill="#2A9379" transform="translate(119,100)"/>
<path d="M0 0 C0.99 0.33 1.98 0.66 3 1 C-0.465 3.97 -0.465 3.97 -4 7 C-4.33 6.01 -4.66 5.02 -5 4 C-4.0409375 3.8453125 -4.0409375 3.8453125 -3.0625 3.6875 C-2.381875 3.460625 -1.70125 3.23375 -1 3 C-0.67 2.01 -0.34 1.02 0 0 Z " fill="#E6F5F2" transform="translate(137,72)"/>
<path d="M0 0 C-0.99 0.66 -1.98 1.32 -3 2 C-1.68 2.66 -0.36 3.32 1 4 C-4.75 4.125 -4.75 4.125 -7 3 C-7 2.34 -7 1.68 -7 1 C-4.53721199 -0.231394 -2.7204945 -0.07159196 0 0 Z " fill="#CB257F" transform="translate(161,168)"/>
<path d="M0 0 C0.66 0 1.32 0 2 0 C0.55746343 3.36591866 -1.33264727 5.51047079 -4 8 C-3.67 6.35 -3.34 4.7 -3 3 C-2.01 2.67 -1.02 2.34 0 2 C0 1.34 0 0.68 0 0 Z " fill="#D6F3F7" transform="translate(129,81)"/>
<path d="M0 0 C0.99 0 1.98 0 3 0 C2.3125 1.9375 2.3125 1.9375 1 4 C-1.625 4.75 -1.625 4.75 -4 5 C-2.1875 2.5 -2.1875 2.5 0 0 Z " fill="#2891CE" transform="translate(140,72)"/>
<path d="M0 0 C-2.40545638 1.20272819 -3.94996953 1.10071472 -6.625 1.0625 C-7.85089844 1.04896484 -7.85089844 1.04896484 -9.1015625 1.03515625 C-10.04128906 1.01775391 -10.04128906 1.01775391 -11 1 C-6.68398307 -1.87734462 -4.56105874 -2.76921423 0 0 Z " fill="#2B79B4" transform="translate(170,60)"/>
<path d="M0 0 C2.99324263 1.0975223 3.84610901 1.67682892 5.25 4.625 C5.4975 5.40875 5.745 6.1925 6 7 C5.34 7 4.68 7 4 7 C0 2.52941176 0 2.52941176 0 0 Z " fill="#F2CBEA" transform="translate(136,147)"/>
<path d="M0 0 C1.65 0 3.3 0 5 0 C3.35 1.65 1.7 3.3 0 5 C-0.33 4.01 -0.66 3.02 -1 2 C-0.67 1.34 -0.34 0.68 0 0 Z " fill="#40528C" transform="translate(164,116)"/>
<path d="M0 0 C0.66 0 1.32 0 2 0 C2.33 1.65 2.66 3.3 3 5 C1.35 5.66 -0.3 6.32 -2 7 C-1.34 4.69 -0.68 2.38 0 0 Z " fill="#DEE2F0" transform="translate(171,109)"/>
<path d="M0 0 C2.475 0.495 2.475 0.495 5 1 C3.515 4.465 3.515 4.465 2 8 C0.23537317 4.91190305 0 3.76687864 0 0 Z " fill="#405293" transform="translate(168,97)"/>
<path d="M0 0 C1.32 0 2.64 0 4 0 C2.25 4.875 2.25 4.875 0 6 C0 4.02 0 2.04 0 0 Z " fill="#196CBC" transform="translate(156,64)"/>
</svg>
